<?xml version="1.0" encoding="UTF-8" standalone="no"?>
<!-- Generator: Adobe Illustrator 25.2.3, SVG Export Plug-In . SVG Version: 6.00 Build 0)  -->

<svg
   version="1.1"
   id="svg74"
   viewBox="0 0 1250.0001 500"
   sodipodi:docname="scale_1to1_px.svg"
   inkscape:version="1.2.2 (b0a8486541, 2022-12-01)"
   xml:space="preserve"
   width="1250mm"
   height="500mm"
   xmlns:inkscape="http://www.inkscape.org/namespaces/inkscape"
   xmlns:sodipodi="http://sodipodi.sourceforge.net/DTD/sodipodi-0.dtd"
   xmlns="http://www.w3.org/2000/svg"
   xmlns:svg="http://www.w3.org/2000/svg"
   xmlns:rdf="http://www.w3.org/1999/02/22-rdf-syntax-ns#"
   xmlns:cc="http://creativecommons.org/ns#"
   xmlns:dc="http://purl.org/dc/elements/1.1/"><metadata
   id="metadata111"><rdf:RDF><cc:Work
       rdf:about=""><dc:format>image/svg+xml</dc:format><dc:type
         rdf:resource="http://purl.org/dc/dcmitype/StillImage" /></cc:Work></rdf:RDF></metadata><defs
   id="defs4179" />
      <sodipodi:namedview
   bordercolor="#000000"
   borderopacity="1"
   gridtolerance="10"
   guidetolerance="10"
   id="namedview76"
   inkscape:current-layer="svg74"
   inkscape:cx="2983.8375"
   inkscape:cy="3106.5064"
   inkscape:pageopacity="0"
   inkscape:pageshadow="2"
   inkscape:window-height="2071"
   inkscape:window-maximized="0"
   inkscape:window-width="2558"
   inkscape:window-x="1272"
   inkscape:window-y="0"
   inkscape:zoom="0.1508125"
   objecttolerance="10"
   pagecolor="#ffffff"
   showgrid="false"
   inkscape:pagecheckerboard="0"
   inkscape:document-units="mm"
   units="mm"
   inkscape:showpageshadow="2"
   inkscape:deskcolor="2.5">
      </sodipodi:namedview>
      <g
   id="sign"
   inkscape:label="sign"
   transform="matrix(0.69986347,0,0,0.69986347,-1028.9415,-343.20992)"
   style="display:inline">
            <g
   id="ramme"
   inkscape:label="ramme"
   transform="rotate(180,20137.323,1405.9843)"
   sodipodi:insensitive="true">
                  <path
   id="path18"
   inkscape:connector-curvature="0"
   style="fill:none;stroke:#000000"
   d="m 35935.7,1940.5 v 15.1" />
                  <path
   id="path20"
   inkscape:connector-curvature="0"
   style="fill:none;stroke:#000000"
   d="m 35992.4,1955.6 v 272.1" />
                  <path
   id="path22"
   inkscape:connector-curvature="0"
   style="fill:none;stroke:#000000"
   d="m 35992.4,1955.6 h -56.7" />
                  <path
   id="path24"
   inkscape:connector-curvature="0"
   style="fill:none;stroke:#000000"
   d="m 36935,1970.8 v 257 h -898.9 z" />
                  <path
   id="path26"
   inkscape:connector-curvature="0"
   style="fill:none;stroke:#000000"
   d="m 36007.5,1955.6 v 264.6 l 925.4,-264.6 z" />
                  <path
   id="path28"
   inkscape:connector-curvature="0"
   style="fill:none;stroke:#000000"
   d="m 36950.1,1970.8 v 257 h 954.1 z" />
                  <path
   id="path30"
   inkscape:connector-curvature="0"
   style="fill:none;stroke:#000000"
   d="m 37934.3,2220.2 -982.2,-264.6 h 982.2 z" />
                  <path
   id="path32"
   inkscape:connector-curvature="0"
   style="fill:none;stroke:#000000"
   d="M 37949.4,2242.9 V 1940.5" />
                  <path
   id="path34"
   inkscape:connector-curvature="0"
   style="fill:none;stroke:#000000"
   d="M 37949.4,1940.5 H 35935.7" />
                  <path
   id="path36"
   inkscape:connector-curvature="0"
   style="fill:none;stroke:#000000"
   d="m 35992.4,2227.8 h -56.7" />
                  <path
   id="path38"
   inkscape:connector-curvature="0"
   style="fill:none;stroke:#000000"
   d="m 35935.7,2227.8 v 15.1" />
                  <path
   id="path40"
   inkscape:connector-curvature="0"
   style="fill:none;stroke:#000000"
   d="m 35935.7,2242.9 h 2013.7" />
                  <path
   id="path42"
   inkscape:connector-curvature="0"
   style="fill:none;stroke:#000000"
   d="M 37949.4,2336.8 V 1902.2" />
                  <path
   id="path44"
   inkscape:connector-curvature="0"
   style="fill:none;stroke:#000000"
   d="m 37949.4,1940.5 h 2013.7" />
                  <path
   id="path46"
   inkscape:connector-curvature="0"
   style="fill:none;stroke:#000000"
   d="M 37949.4,2242.9 V 1940.5" />
                  <path
   id="path48"
   inkscape:connector-curvature="0"
   style="fill:none;stroke:#000000"
   d="m 38963.8,2227.8 h 898.9 l -898.9,-257 z" />
                  <path
   id="path50"
   inkscape:connector-curvature="0"
   style="fill:none;stroke:#000000"
   d="m 38946.7,1955.6 h -982.2 v 264.6 z" />
                  <path
   id="path52"
   inkscape:connector-curvature="0"
   style="fill:none;stroke:#000000"
   d="m 39891.3,2220.2 -925.4,-264.6 h 925.4 z" />
                  <path
   id="path54"
   inkscape:connector-curvature="0"
   style="fill:none;stroke:#000000"
   d="m 39963.2,1940.5 v 15.1" />
                  <path
   id="path56"
   inkscape:connector-curvature="0"
   style="fill:none;stroke:#000000"
   d="m 39906.5,2227.8 h 56.7" />
                  <path
   id="path58"
   inkscape:connector-curvature="0"
   style="fill:none;stroke:#000000"
   d="m 38948.7,1970.8 v 257 h -954.1 z" />
                  <path
   id="path60"
   inkscape:connector-curvature="0"
   style="fill:none;stroke:#000000"
   d="m 39906.5,1955.6 h 56.7" />
                  <path
   id="path62"
   inkscape:connector-curvature="0"
   style="fill:none;stroke:#000000"
   d="m 39963.2,2227.8 v 15.1" />
                  <path
   id="path64"
   inkscape:connector-curvature="0"
   style="fill:none;stroke:#000000"
   d="m 39906.5,1955.6 v 272.1" />
                  <path
   id="path66"
   inkscape:connector-curvature="0"
   style="fill:none;stroke:#000000"
   d="M 39963.2,2242.9 H 37949.5" />
                  <path
   id="path68"
   inkscape:connector-curvature="0"
   style="fill:none;stroke:#000000"
   d="m 35935.7,1842.3 h 4027.5 v 680.3 h -4027.5 z" />
                  <path
   id="path70"
   inkscape:connector-curvature="0"
   style="fill:none;stroke:#000000"
   d="m 35935.7,1823.4 h 4027.5 v -408.2 h -4027.5 z" />
            </g>
            <g
   id="group_text"
   inkscape:label="group_text"
   sodipodi:insensitive="true">
                  <path
   id="_x35__1_"
   d="m 2370.5,507.1 c -28.3,13.1 -42.8,41.9 -51.3,62.3 -1.7,4.2 -4,6.7 -6.2,6.9 -2.2,0.1 -4.8,-2.1 -7.1,-6 -10.3,-17.8 -21.6,-31.2 -35.3,-45.8 -16.3,-17.3 -44.6,-23.5 -61.9,-13.4 -4.2,2.4 -14.7,11.6 -23.3,43.9 -8.8,33.5 -12.4,80.3 -10.8,139.1 1.8,62.6 16.2,105.9 28,131.2 13.7,29.4 30.4,48.3 42.6,48.3 0,0 0,0 0,0 7.7,0 13,-2.1 16.1,-6.4 6.7,-9.3 1,-26.2 -7.5,-51.7 -14.1,-41.8 -35.4,-105.1 -17.9,-181.3 0.9,-3.7 4.2,-16.1 11.5,-18.1 6.1,-1.7 21,3.1 52,54 3.9,6.3 10.6,10 18,9.9 7.4,-0.1 13.9,-4.1 17.5,-10.6 l 0.4,-0.8 c 13.5,-24.4 33.9,-61.3 45.9,-57.9 6.9,1.9 10.3,13.8 11.6,18.3 13.1,45.5 5.6,119.5 0.1,173.5 -5,49.1 -6.1,63.4 1.4,66.2 6.1,2.3 11.9,1.7 17.3,-1.7 24.7,-15.6 34.9,-94.8 42.3,-178.1 0.3,-4 6.8,-99.8 -36.3,-165.4 -12.2,-18.6 -29.4,-24.6 -47.1,-16.4 z"
   inkscape:connector-curvature="0" />
                  <path
   id="_x34_-copy_3_"
   d="m 2130.1,718.2 c -37,2.5 -67.7,5.2 -100.1,8 l -8.3,0.7 c -5.3,0.5 -10.4,1.1 -15.4,1.8 -11.8,1.5 -23,3 -34,1.5 1.6,-3.9 7.5,-14.1 28.5,-40.3 17.5,-21.9 40.3,-48.7 62.4,-74.5 21,-24.7 40.9,-48 54.2,-64.7 4.6,-5.8 5.7,-17.3 2.3,-24.6 -2,-4.3 -5.3,-6.7 -9.4,-6.8 -31.5,-0.9 -67.1,-3.1 -101.6,-5.2 -35,-2.2 -71.3,-4.4 -103.6,-5.3 -4.3,-0.1 -14.2,0.8 -16.4,6.2 -1.4,3.4 0.7,7.7 4.5,13.1 6.9,9.8 14.1,19.9 29.1,27 9.5,4.5 23.9,5 52.6,6 14.1,0.5 28.2,2.4 42.4,2.6 10.7,0.1 19.6,-0.1 21.5,4.2 2,4.6 -5,11.5 -7,13.8 -23.4,28.4 -47.4,55.9 -70.6,82.5 -22.8,26.1 -46.4,53.2 -69.5,81.1 l -0.3,0.4 c -5.1,7.8 -5.1,18.3 0.1,28 4.7,8.9 12.5,14.9 19.4,14.9 47,-0.7 103.2,-4.9 152.8,-8.6 11.4,-0.8 22.5,-1.7 33.1,-2.4 h 0.5 l 0.5,-0.1 c 23.8,-7.4 54.5,-34.6 51.5,-50.1 -1.1,-4.8 -5.1,-10.3 -19.2,-9.2 z"
   inkscape:connector-curvature="0" />
                  <path
   id="_x32__1_"
   d="m 1643,777.4 -0.9,-14.1 c -0.9,-13.5 -1.8,-24.5 -2.5,-32 -1.3,-14.8 -2.8,-28.3 -11.3,-98.5 -1.4,-11.2 -1.1,-9.2 -1.3,-11.1 -8.1,-67.3 -8.2,-84.5 -20.5,-106.5 -4,-7.2 -8,-12.4 -10.1,-15 -5.4,-6.7 -26.8,-37.5 -62.3,-38.1 -16,-0.2 -26.8,1.1 -34.8,4.2 -10.2,4 -14.4,13.9 -17.1,19.1 -36.5,70.4 -37.4,264.6 -31.4,278.7 1.8,4.3 4.4,8.1 4.4,8.1 2.3,3.3 4.6,5.7 6.2,7.1 v 0 c 0,0 5.7,4.9 12.7,6.9 1.6,0.5 3.5,0.9 5.7,0.4 1.2,-0.2 2.3,-0.7 3.4,-1.4 9.9,-6.3 12.7,-29.3 17.1,-72.9 2.6,-25.7 5.6,-54.9 11.3,-81.2 1,-4.6 4.8,-7.7 9.2,-7.7 0,0 0,0 0,0 7.3,0 15.2,1.6 24,4.9 25.2,9.3 39,38.5 40.7,86.7 1.6,42.6 15,140.1 20.3,154 6.1,16.4 21.8,43.1 33.4,43.1 0.8,0 1.5,-0.1 2.3,-0.4 5.2,-1.8 7.7,-9 6.7,-43.5 -0.7,-23.4 -2.8,-54.7 -5.2,-90.8 z m -62.1,-190.1 c -2.2,2.8 -5.5,4.4 -9,4.6 -0.9,0 -1.8,0 -2.7,-0.2 l -43.1,-7.1 c -6.5,-1.1 -11,-7.1 -10,-13.5 l 5.2,-34.3 c 0.6,-3.8 3,-7.1 6.5,-8.9 3.6,-1.8 7.8,-1.8 11.3,0.1 12.2,6.4 22.6,15 30.8,25.6 5.2,6.7 9.5,14.1 12.7,22 1.7,3.9 1,8.3 -1.7,11.7 z"
   inkscape:connector-curvature="0" />
                  <path
   id="_x31__1_"
   d="m 1338.9,649.6 c -7.7,-16.1 -13.5,-29.9 -17.5,-40 -0.3,-0.7 -0.7,-1.5 -0.9,-2.5 -0.7,-3 0,-6.2 1.6,-8.8 60.7,-99.8 146.2,-158.8 189.9,-235.8 0.5,-0.9 0.9,-1.8 1.2,-2.8 2.7,-9.5 2,-16.8 -1,-22.4 -12.5,-22.7 -123.1,-12.8 -123.1,-12.8 -39.2,3.9 -92.2,10.7 -155.2,22.9 0,0 -16.5,6.6 -29,24 -35.9,50 -49.9,267.4 -49.9,267.4 0,0 -15.7,243.6 15.3,320.6 2,5.1 5.8,7.6 5.8,7.6 24.2,14.2 23,-27.8 32.4,-101.8 4.1,-37.8 9.2,-84.9 17.3,-145.3 2.9,-24.8 9.1,-47.4 15,-71.4 0.5,-1 2.1,-1.1 2.8,0.1 7.2,12.8 17.5,30.7 30.7,51.7 11.5,18.2 34.6,54.9 59.7,85.7 44.9,55.2 91,85.3 135.8,114.6 0,0 81.7,53.4 117.2,39.8 2,-0.8 3.1,-2.2 3.1,-2.2 0.2,-0.3 0.4,-0.6 0.5,-0.9 7,-14.9 -65.6,-47.2 -130.4,-109.9 -68.2,-66 -104.9,-143.3 -121.3,-177.8 z M 1259,553.3 c -2.5,2.2 -5.5,3.4 -8.5,3.4 -1.7,0 -3.4,-0.4 -5.1,-1.1 -4.9,-2.2 -8,-7.1 -8,-12.6 -0.1,-42.2 -0.2,-75.4 17.4,-123.3 5.7,-15.6 14.8,-24.8 27,-27.3 3.9,-0.8 8.1,-1.9 12.5,-3 8.1,-2.1 17.3,-4.4 28.6,-6.2 18.7,-3.1 45.9,-5.2 65.9,-2 5.1,0.8 9.2,4.1 11,8.7 1.7,4.4 0.9,9.3 -2.1,13.1 -20.4,25.4 -63.5,77 -95.6,109.3 -13.9,13.8 -28.4,27.7 -43.1,41 z"
   inkscape:connector-curvature="0" />
                  <path
   id="_x39_-copy_1_"
   d="m 3343.2,678.3 c -36.6,6.4 -66.7,12.3 -98.7,18.6 l -8.2,1.6 c -5.2,1 -10.2,2.2 -15.1,3.4 -11.6,2.8 -22.5,5.4 -33.7,5.1 1.1,-4.1 6,-14.8 24.1,-43.1 15.1,-23.7 35,-52.7 54.2,-80.7 18.3,-26.8 35.6,-52 47,-70.1 4,-6.3 3.8,-17.8 -0.3,-24.7 -2.4,-4 -6,-6.1 -10.1,-5.7 -31.4,2.5 -67.1,4 -101.5,5.6 -35.1,1.5 -71.3,3.1 -103.6,5.7 -4.3,0.3 -14,2.3 -15.7,7.9 -1.1,3.6 1.5,7.5 5.9,12.5 7.9,9 16.1,18.3 31.8,23.7 9.9,3.4 24.3,2.4 53,0.4 14.1,-1 28.3,-0.6 42.4,-1.9 10.6,-1 19.5,-2.2 21.9,1.9 2.5,4.3 -3.8,12 -5.5,14.5 -20.3,30.8 -41.3,60.6 -61.5,89.5 -19.9,28.4 -40.5,57.8 -60.5,88 l -0.2,0.4 c -4.3,8.3 -3.1,18.8 3.1,27.9 5.6,8.3 14,13.5 20.8,12.8 46.6,-5.6 102.1,-15.8 151,-24.7 11.2,-2 22.2,-4 32.7,-5.9 l 0.5,-0.1 0.4,-0.2 c 22.9,-9.9 50.5,-40.1 45.9,-55.2 -1.6,-4.8 -6.2,-9.8 -20.1,-7.2 z"
   inkscape:connector-curvature="0" />
                  <path
   id="_x34_-copy_2_"
   d="m 1925.7,815 c -37,2.5 -67.7,5.2 -100.1,8 l -8.3,0.7 c -5.3,0.5 -10.4,1.1 -15.4,1.8 -11.8,1.5 -23,3 -34,1.5 1.6,-3.9 7.5,-14.1 28.5,-40.3 17.5,-21.9 40.3,-48.7 62.4,-74.5 21,-24.7 40.9,-48 54.2,-64.7 4.6,-5.8 5.7,-17.3 2.3,-24.6 -2,-4.3 -5.3,-6.7 -9.4,-6.8 -31.5,-0.9 -67.1,-3.1 -101.6,-5.2 -35,-2.2 -71.3,-4.4 -103.6,-5.3 -4.3,-0.1 -14.2,0.8 -16.4,6.2 -1.4,3.4 0.7,7.7 4.5,13.1 6.9,9.8 14.1,19.9 29.1,27 9.5,4.5 23.9,5 52.6,6 14.1,0.5 28.2,2.4 42.4,2.6 10.7,0.1 19.6,-0.1 21.5,4.2 2,4.6 -5,11.5 -7,13.8 -23.4,28.4 -47.4,55.9 -70.6,82.5 -22.8,26.1 -46.4,53.2 -69.5,81.1 l -0.3,0.4 c -5.1,7.8 -5.1,18.3 0.1,28 4.7,8.9 12.5,14.9 19.4,14.9 47,-0.7 103.2,-4.9 152.8,-8.6 11.4,-0.8 22.5,-1.7 33.1,-2.4 h 0.5 l 0.5,-0.1 c 23.8,-7.4 54.5,-34.6 51.5,-50.1 -1.1,-4.8 -5.1,-10.3 -19.2,-9.2 z"
   inkscape:connector-curvature="0" />
                  <path
   id="_x31_0-copy_1_"
   d="m 3500.3,858.5 c -35.9,-9.4 -65.8,-16.6 -97.5,-24.2 l -8.1,-2 c -5.1,-1.2 -10.2,-2.2 -15.2,-3.2 -11.7,-2.3 -22.7,-4.5 -32.7,-9.4 2.7,-3.2 11.6,-10.9 39.8,-29.1 23.6,-15.2 53.7,-33.3 82.9,-50.8 27.8,-16.7 54,-32.5 71.9,-44.2 6.2,-4 10.9,-14.6 10,-22.6 -0.5,-4.7 -2.9,-8 -6.8,-9.4 -29.6,-10.8 -62.7,-24.2 -94.6,-37.2 -32.5,-13.2 -66.2,-26.9 -96.6,-38 -4.1,-1.5 -13.7,-3.7 -17.6,0.7 -2.4,2.8 -1.8,7.5 0.1,13.8 3.4,11.4 7,23.4 19,34.8 7.6,7.3 21.1,12.3 48,22.4 13.2,5 26,11.2 39.4,15.9 10.1,3.5 18.7,6.1 19.1,10.9 0.4,5 -8.4,9.3 -11,10.9 -31.3,19.5 -62.8,38 -93.2,55.8 -29.9,17.5 -60.9,35.7 -91.7,54.8 l -0.4,0.3 c -7.4,5.8 -10.7,15.7 -8.8,26.6 1.7,9.9 7.1,18 13.6,20.3 44.7,14.3 99.4,28.2 147.6,40.4 11,2.8 21.8,5.5 32.2,8.2 l 0.5,0.1 h 0.5 c 25,0.5 62.7,-15.4 64.8,-31.1 0.6,-4.7 -1.5,-11.2 -15.2,-14.7 z"
   inkscape:connector-curvature="0" />
                  <path
   id="_x38__1_"
   d="m 3076.4,779 c -18.7,-86 -43,-174.5 -54,-210 -0.1,-0.3 -0.2,-0.8 -0.4,-1.5 -0.8,-3.7 -2.6,-11.5 -8,-19.3 -13.7,-19.7 -39.3,-26.7 -58.6,-24.9 -11.7,1.1 -20.2,5.3 -23.4,6.9 v 0 c -0.8,0.4 -1.5,0.8 -2.2,1.2 -4.1,2.6 -14.6,9.9 -22.7,22.6 -24.7,38.9 -53.2,299.1 -31.5,347.6 2.6,5.8 6.1,9.1 10.3,9.8 8.7,1.4 15.7,-2.3 16.6,-2.8 1.3,-0.7 10.3,-6.2 13.6,-23 4.8,-24.7 8,-64.9 11.5,-107.5 2.2,-27.6 4.5,-56.2 7.3,-81.1 0.1,-0.6 0.1,-1.2 0.2,-2 0.3,-3.8 0.7,-8.9 4.1,-12.4 6.4,-6.5 24,-8.1 37.3,-0.2 6.6,3.9 10.2,8.9 11.7,10.9 18.9,26.4 24.1,57.7 24.1,57.7 20.1,96.7 20.1,96.7 38.3,171.4 0.1,0.5 11.3,45.3 32.6,45.5 0,0 0.1,0 0.1,0 3.9,0 7.3,-1.8 9.8,-5.2 6.7,-9 7.9,-31.3 3.7,-68.2 -3.3,-29.6 -10.2,-68.5 -20.4,-115.5 z m -91.9,-135.4 c -3.2,1.7 -8.3,2.5 -13.9,2.5 -11.3,0 -24.7,-3 -29.5,-7 -4.6,-3.8 -5,-8.6 -2.7,-29.9 2.2,-19.6 3.9,-27.2 7.9,-31.1 0.9,-0.9 1.8,-1.6 3.1,-2.2 10.5,-4.6 25.5,10.4 26.4,11.3 0,0 10.7,11.1 14.4,32.6 0.4,2.3 0.5,4.7 0.7,5.7 0.8,6.5 1.8,13.6 -6.4,18.1 z"
   inkscape:connector-curvature="0" />
                  <path
   id="_x37__1_"
   d="m 2913.3,472.5 c -1.9,-7.4 -2.9,-11.1 -4.9,-13.7 -7.8,-9.8 -24.6,-8.3 -53.1,-4.8 -19.4,2.4 -40.6,5.4 -63.5,9 0,0 0,0 0,0 -0.5,0.1 -37.8,6.3 -77.7,11.2 -70.8,8.7 -123.3,11.3 -127.1,27.6 -0.5,2.3 -0.7,5.2 -0.5,11 0.2,7.2 0.9,35.9 14,43.5 13.3,7.8 27.8,-13 72.1,-21.1 16.1,-2.9 24.2,-4.1 31.3,-0.8 22.8,10.9 17.9,55 19.9,123.6 0,0 2.3,81.9 24.5,176.7 0,0 17.9,77.5 50.2,87.7 0.9,0.3 1.8,0.4 2.6,0.4 1.8,0 3.4,-0.6 4.8,-1.8 2.9,-2.4 8.2,-6.9 1.6,-71.8 -3.5,-34.9 -9.3,-75.6 -13.1,-102.5 -1.9,-13.7 -3.5,-24.6 -3.8,-28.3 -2.3,-25.8 -4.6,-48.2 -6.6,-67.9 0,0 -5.6,-58.9 -2.3,-108.4 0.3,-3.9 1.1,-7.1 2.4,-9.9 0,0 1.6,-3.3 4.2,-6.2 8.5,-9.2 30.3,-12.8 30.3,-12.8 18,-3 27,-4.5 35.3,-4.9 42.6,-2.3 56.5,3.8 62.1,-4.7 3.8,-5.8 1.3,-15.6 -2.7,-31.1 z"
   inkscape:connector-curvature="0" />
                  <path
   id="_x36__1_"
   d="m 2705.2,900.7 c -11.6,-22.6 -23.6,-45.9 -33.4,-72.3 -17.9,-48.4 -25.4,-95 -32,-136.1 -4.6,-29 -9,-56.4 -16.5,-81.4 -1.5,-4.9 -4.1,-9.4 -7.5,-13 -9.5,-9.9 -20.1,-14.3 -23.8,-15.4 -17.8,-5.5 -33.2,0.2 -39,2.4 -2.9,1.1 -15.5,6.2 -27.4,19.6 -9.9,11.1 -15.7,23.7 -24.8,63.4 -5.8,25.1 -9.1,44.7 -10.6,53.3 -6.6,39.5 -10.2,61 -11.3,90.1 -0.6,16.2 -0.6,38.5 2.2,65.2 l 0.2,2.3 0.6,0.3 c 6.7,25.2 17.5,29.3 23.4,29.4 9.1,0.2 17.1,-7.8 21.1,-21 0.2,-0.6 0.2,-1.2 0.3,-12.6 0.1,-7.1 0.1,-15.7 0.1,-17.5 v -0.2 -0.5 c -0.3,-17.8 0.4,-44.1 3.4,-67.4 5,-38.7 11.3,-45.7 17.1,-48.9 15.5,-8.6 37.1,5 38.1,5.6 18.6,12 19.2,29.3 34.3,74.2 v 0 c 5.1,14.6 18.7,50.3 49.5,90.7 0,0 10.2,13.4 29.4,29.2 7.3,6.1 15.1,11.6 19.7,9.1 3.3,-1.8 4.3,-7.3 4.3,-7.6 0.5,-2.7 0.2,-5.6 -1.1,-8.3 -5,-10.8 -10.5,-21.4 -16.3,-32.6 z M 2596.1,699.4 c -0.9,0.9 -2.1,1.4 -3.4,1.4 -0.2,0 -0.4,0 -0.6,0 -6.6,-0.8 -13,-2 -19.3,-3.1 -6.1,-1.1 -12.4,-2.3 -18.8,-3 -0.9,-0.1 -2.3,-0.9 -3.6,-2.3 -2.7,-2.7 -3.1,-6.5 -3.2,-9 -0.7,-11.7 1.8,-24.8 2.4,-27.7 2.5,-13.3 3.5,-17 7.2,-19.3 2.7,-1.6 5.5,-1.7 6.7,-1.7 6.8,-0.1 11.8,4.2 14.4,6.4 16.1,13.9 18.9,32.8 20.5,43.4 0.2,0.1 1.5,11 -2.3,14.9 z"
   inkscape:connector-curvature="0" />
            </g>
            <g
   id="group_bulbs"
   inkscape:label="group_bulbs"
   transform="matrix(3.9622461,0,0,3.9622461,763.28221,-1665.5647)">
                  <circle
   id="bulb-4"
   style="display:inline;fill:#ff0000;fill-opacity:1;stroke-width:1.19236"
   cx="112.80262"
   cy="542.77423"
   r="2.5" />
                  <circle
   id="bulb-3"
   style="display:inline;fill:#ff0000;fill-opacity:1;stroke-width:1.19236"
   cx="109.7562"
   cy="573.45551"
   r="2.5" />
                  <circle
   id="bulb-2"
   style="display:inline;fill:#ff0000;fill-opacity:1;stroke-width:1"
   cx="106.49088"
   cy="605.53076"
   r="2.5" />
                  <circle
   id="bulb-1"
   style="display:inline;fill:#ff0000;fill-opacity:1;stroke-width:1"
   cx="105.27954"
   cy="-638.42126"
   r="2.5"
   transform="scale(1,-1)" />
                  <circle
   id="bulb-8"
   style="display:inline;fill:#ff0000;fill-opacity:1;stroke-width:1.19236"
   cx="160.52336"
   cy="533.01953"
   r="2.5" />
                  <circle
   id="bulb-7"
   style="display:inline;fill:#ff0000;fill-opacity:1;stroke-width:1.19236"
   cx="174.85715"
   cy="511.61154"
   r="2.5" />
                  <circle
   id="bulb-6"
   style="display:inline;fill:#ff0000;fill-opacity:1;stroke-width:1.19236"
   cx="146.37206"
   cy="509.7933"
   r="2.5" />
                  <circle
   id="bulb-5"
   style="display:inline;fill:#ff0000;fill-opacity:1;stroke-width:1.19236"
   cx="119.38454"
   cy="517.95502"
   r="2.5" />
                  <circle
   id="bulb-10"
   style="display:inline;fill:#ff0000;fill-opacity:1;stroke-width:1.19236"
   cx="130.6163"
   cy="572.20605"
   r="2.5" />
                  <circle
   id="bulb-11"
   style="display:inline;fill:#ff0000;fill-opacity:1;stroke-width:1.19236"
   cx="140.89993"
   cy="596.4339"
   r="2.5" />
                  <circle
   id="bulb-21"
   style="display:inline;fill:#ff0000;fill-opacity:1;stroke-width:1.19236"
   cx="179.02805"
   cy="598.76337"
   r="2.5" />
                  <circle
   id="bulb-22"
   style="display:inline;fill:#ff0000;fill-opacity:1;stroke-width:1.19236"
   cx="183.22275"
   cy="571.49756"
   r="2.5" />
                  <circle
   id="bulb-23"
   style="display:inline;fill:#ff0000;fill-opacity:1;stroke-width:1.19236"
   cx="189.54684"
   cy="544.71136"
   r="2.5" />
                  <circle
   id="bulb-24"
   style="display:inline;fill:#ff0000;fill-opacity:1;stroke-width:1.19236"
   cx="207.09181"
   cy="551.25879"
   r="2.5" />
                  <circle
   id="bulb-25"
   style="display:inline;fill:#ff0000;fill-opacity:1;stroke-width:1.19236"
   cx="-210.40323"
   cy="578.30304"
   transform="scale(-1,1)"
   r="2.5" />
                  <circle
   id="bulb-26"
   style="display:inline;fill:#ff0000;fill-opacity:1;stroke-width:1.19236"
   cx="214.83961"
   cy="602.69684"
   r="2.5" />
                  <circle
   id="bulb-27"
   style="display:inline;fill:#ff0000;fill-opacity:1;stroke-width:1.19236"
   cx="-217.18263"
   cy="630.99738"
   transform="scale(-1,1)"
   r="2.5" />
                  <circle
   id="bulb-36"
   style="display:inline;fill:#ff0000;fill-opacity:1;stroke-width:1.19236"
   cx="242.90906"
   cy="634.37244"
   r="2.5" />
                  <circle
   id="bulb-35"
   style="display:inline;fill:#ff0000;fill-opacity:1;stroke-width:1.19236"
   cx="255.367"
   cy="616.13837"
   r="2.5" />
                  <circle
   id="bulb-34"
   style="display:inline;fill:#ff0000;fill-opacity:1;stroke-width:1.19236"
   cx="270.23117"
   cy="597.9859"
   r="2.5" />
                  <circle
   id="bulb-33"
   style="display:inline;fill:#ff0000;fill-opacity:1;stroke-width:1.19236"
   cx="282.81345"
   cy="581.33044"
   r="2.5" />
                  <circle
   id="bulb-32"
   style="display:inline;fill:#ff0000;fill-opacity:1;stroke-width:1.19236"
   cx="263.68839"
   cy="580.24078"
   r="2.5" />
                  <circle
   id="bulb-31"
   style="display:inline;fill:#ff0000;fill-opacity:1;stroke-width:1.19236"
   cx="244.75681"
   cy="579.39276"
   r="2.5" />
                  <circle
   id="bulb-41"
   style="display:inline;fill:#ff0000;fill-opacity:1;stroke-width:1.19236"
   cx="297.95502"
   cy="555.15765"
   r="2.5" />
                  <circle
   id="bulb-42"
   style="display:inline;fill:#ff0000;fill-opacity:1;stroke-width:1.19236"
   cx="314.65155"
   cy="555.77301"
   r="2.5" />
                  <circle
   id="bulb-43"
   style="display:inline;fill:#ff0000;fill-opacity:1;stroke-width:1.19236"
   cx="332.8974"
   cy="556.99664"
   r="2.5" />
                  <circle
   id="bulb-44"
   style="display:inline;fill:#ff0000;fill-opacity:1;stroke-width:1.19236"
   cx="321.95486"
   cy="573.44336"
   r="2.5" />
                  <circle
   id="bulb-45"
   style="display:inline;fill:#ff0000;fill-opacity:1;stroke-width:1.19236"
   cx="307.87451"
   cy="590.17639"
   r="2.5" />
                  <circle
   id="bulb-51"
   style="display:inline;fill:#ff0000;fill-opacity:1;stroke-width:1.19236"
   cx="370.45358"
   cy="627.07483"
   r="2.5" />
                  <circle
   id="bulb-52"
   style="display:inline;fill:#ff0000;fill-opacity:1;stroke-width:1.19236"
   cx="364.75101"
   cy="603.87109"
   r="2.5" />
                  <circle
   id="bulb-53"
   style="display:inline;fill:#ff0000;fill-opacity:1;stroke-width:1.19236"
   cx="364.50562"
   cy="580.46808"
   r="2.5" />
                  <circle
   id="bulb-54"
   style="display:inline;fill:#ff0000;fill-opacity:1;stroke-width:1.19236"
   cx="372.46964"
   cy="561.4729"
   r="2.5" />
                  <circle
   id="bulb-55"
   style="display:inline;fill:#ff0000;fill-opacity:1;stroke-width:1.19236"
   cx="392.49234"
   cy="575.45038"
   r="2.5" />
                  <circle
   id="bulb-56"
   style="display:inline;fill:#ff0000;fill-opacity:1;stroke-width:1.19236"
   cx="410.23517"
   cy="559.3606"
   r="2.5" />
                  <circle
   id="bulb-57"
   style="display:inline;fill:#ff0000;fill-opacity:1;stroke-width:1.19236"
   cx="419.09967"
   cy="577.93341"
   r="2.5" />
                  <circle
   id="bulb-61"
   style="display:inline;fill:#ff0000;fill-opacity:1;stroke-width:1.19236"
   cx="438.56894"
   cy="629.17975"
   r="2.5" />
                  <circle
   id="bulb-62"
   style="display:inline;fill:#ff0000;fill-opacity:1;stroke-width:1.19236"
   cx="443.62729"
   cy="600.21191"
   r="2.5" />
                  <circle
   id="bulb-64"
   style="display:inline;fill:#ff0000;fill-opacity:1;stroke-width:1.19236"
   cx="464.09146"
   cy="575.62128"
   r="2.5" />
                  <circle
   id="bulb-65"
   style="display:inline;fill:#ff0000;fill-opacity:1;stroke-width:1.19236"
   cx="468.69681"
   cy="604.02924"
   r="2.5" />
                  <circle
   id="bulb-66"
   style="display:inline;fill:#ff0000;fill-opacity:1;stroke-width:1.19236"
   cx="474.28152"
   cy="623.6272"
   r="2.5" />
                  <circle
   id="bulb-76"
   style="display:inline;fill:#ff0000;fill-opacity:1;stroke-width:1.19236"
   cx="509.28351"
   cy="632.69641"
   r="2.5" />
                  <circle
   id="bulb-75"
   style="display:inline;fill:#ff0000;fill-opacity:1;stroke-width:1.19236"
   cx="505.13724"
   cy="603.85736"
   r="2.5" />
                  <circle
   id="bulb-73"
   style="display:inline;fill:#ff0000;fill-opacity:1;stroke-width:1.19236"
   cx="529.61011"
   cy="541.17242"
   r="2.5" />
                  <circle
   id="bulb-72"
   style="display:inline;fill:#ff0000;fill-opacity:1;stroke-width:1.19236"
   cx="501.37497"
   cy="545.83502"
   r="2.5" />
                  <circle
   id="bulb-71"
   style="display:inline;fill:#ff0000;fill-opacity:1;stroke-width:1.19236"
   cx="471.11221"
   cy="549.60455"
   r="2.5" />
                  <circle
   id="bulb-74"
   style="display:inline;fill:#ff0000;fill-opacity:1;stroke-width:1.19236"
   cx="502.94873"
   cy="574.28259"
   r="2.5" />
                  <circle
   id="bulb-81"
   style="display:inline;fill:#ff0000;fill-opacity:1;stroke-width:1.19236"
   cx="538.26556"
   cy="635.24377"
   r="2.5" />
                  <circle
   id="bulb-82"
   style="display:inline;fill:#ff0000;fill-opacity:1;stroke-width:1.19236"
   cx="539.927"
   cy="611.15869"
   r="2.5" />
                  <circle
   id="bulb-83"
   style="display:inline;fill:#ff0000;fill-opacity:1;stroke-width:1.19236"
   cx="542.25836"
   cy="585.12292"
   r="2.5" />
                  <circle
   id="bulb-84"
   style="display:inline;fill:#ff0000;fill-opacity:1;stroke-width:1.19236"
   cx="557.17365"
   cy="559.07208"
   r="2.5" />
                  <circle
   id="bulb-85"
   style="display:inline;fill:#ff0000;fill-opacity:1;stroke-width:1.19236"
   cx="569.66278"
   cy="587.02216"
   r="2.5" />
                  <circle
   id="bulb-86"
   style="display:inline;fill:#ff0000;fill-opacity:1;stroke-width:1.19236"
   cx="575.38306"
   cy="608.81586"
   r="2.5" />
                  <circle
   id="bulb-87"
   style="display:inline;fill:#ff0000;fill-opacity:1;stroke-width:1.19236"
   cx="579.68317"
   cy="629.84113"
   r="2.5" />
                  <circle
   id="bulb-96"
   style="display:inline;fill:#ff0000;fill-opacity:1;stroke-width:1.19236"
   cx="602.29889"
   cy="605.31543"
   r="2.5" />
                  <circle
   id="bulb-94"
   style="display:inline;fill:#ff0000;fill-opacity:1;stroke-width:1.19236"
   cx="624.5097"
   cy="567.91687"
   r="2.5" />
                  <circle
   id="bulb-93"
   style="display:inline;fill:#ff0000;fill-opacity:1;stroke-width:1.19236"
   cx="633.78491"
   cy="549.00507"
   r="2.5" />
                  <circle
   id="bulb-92"
   style="display:inline;fill:#ff0000;fill-opacity:1;stroke-width:1.19236"
   cx="616.901"
   cy="548.96191"
   r="2.5" />
                  <circle
   id="bulb-91"
   style="display:inline;fill:#ff0000;fill-opacity:1;stroke-width:1.19236"
   cx="-597.86041"
   cy="-550.15808"
   transform="scale(-1)"
   r="2.5" />
                  <circle
   id="bulb-95"
   style="display:inline;fill:#ff0000;fill-opacity:1;stroke-width:1.19236"
   cx="612.19159"
   cy="585.96173"
   r="2.5" />
                  <circle
   id="bulb-101"
   style="display:inline;fill:#ff0000;fill-opacity:1;stroke-width:1.19236"
   cx="659.2583"
   cy="576.90039"
   r="2.5" />
                  <circle
   id="bulb-102"
   style="display:inline;fill:#ff0000;fill-opacity:1;stroke-width:1.19236"
   cx="676.38055"
   cy="584.25134"
   r="2.5" />
                  <circle
   id="bulb-103"
   style="display:inline;fill:#ff0000;fill-opacity:1;stroke-width:1.19236"
   cx="691.81299"
   cy="-593.02887"
   transform="scale(1,-1)"
   r="2.5" />
                  <circle
   id="bulb-104"
   style="display:inline;fill:#ff0000;fill-opacity:1;stroke-width:1.19236"
   cx="677.09686"
   cy="603.21533"
   r="2.5" />
                  <circle
   id="bulb-105"
   style="display:inline;fill:#ff0000;fill-opacity:1;stroke-width:1.19236"
   cx="659.15094"
   cy="614.58856"
   r="2.5" />
                  <circle
   id="bulb-106"
   style="display:inline;fill:#ff0000;fill-opacity:1;stroke-width:1.19236"
   cx="641.24054"
   cy="628.37567"
   r="2.5" />
            <circle
   id="bulb-12"
   style="display:inline;fill:#ff0000;fill-opacity:1;stroke-width:1.19236"
   cx="157.60118"
   cy="619.99048"
   r="2.5" /><circle
   id="bulb-13"
   style="display:inline;fill:#ff0000;fill-opacity:1;stroke-width:1.19236"
   cx="181.91013"
   cy="642.27148"
   r="2.5" /><circle
   id="bulb-37"
   style="display:inline;fill:#ff0000;fill-opacity:1;stroke-width:1.19236"
   cx="262.78983"
   cy="635.57489"
   r="2.5" /><circle
   id="bulb-38"
   style="display:inline;fill:#ff0000;fill-opacity:1;stroke-width:1.19236"
   cx="282.29913"
   cy="633.9328"
   r="2.5" /><circle
   id="bulb-46"
   style="display:inline;fill:#ff0000;fill-opacity:1;stroke-width:1.19236"
   cx="295.35608"
   cy="610.8158"
   r="2.5" /><circle
   id="bulb-48"
   style="display:inline;fill:#ff0000;fill-opacity:1;stroke-width:1.19236"
   cx="335.4422"
   cy="609.01941"
   r="2.5" /><circle
   id="bulb-47"
   style="display:inline;fill:#ff0000;fill-opacity:1;stroke-width:1.19236"
   cx="315.79138"
   cy="610.82214"
   r="2.5" /><circle
   id="bulb-58"
   style="display:inline;fill:#ff0000;fill-opacity:1;stroke-width:1.19236"
   cx="419.6124"
   cy="600.63983"
   r="2.5" /><circle
   id="bulb-59"
   style="display:inline;fill:#ff0000;fill-opacity:1;stroke-width:1.19236"
   cx="417.0593"
   cy="623.59186"
   r="2.5" /><circle
   id="bulb-67"
   style="display:inline;fill:#ff0000;fill-opacity:1;stroke-width:1.19236"
   cx="482.62698"
   cy="644.42816"
   r="2.5" /><circle
   id="bulb-88"
   style="display:inline;fill:#ff0000;fill-opacity:1;stroke-width:1.19236"
   cx="583.40289"
   cy="651.6839"
   r="2.5" /><circle
   id="bulb-98"
   style="display:inline;fill:#ff0000;fill-opacity:1;stroke-width:1.19236"
   cx="643.63666"
   cy="599.03857"
   r="2.5" /><circle
   id="bulb-97"
   style="display:inline;fill:#ff0000;fill-opacity:1;stroke-width:1.19236"
   cx="624.64386"
   cy="603.47528"
   r="2.5" /><circle
   id="bulb-108"
   style="display:inline;fill:#ff0000;fill-opacity:1;stroke-width:1.19236"
   cx="679.92456"
   cy="640.31342"
   r="2.5" /><circle
   id="bulb-107"
   style="display:inline;fill:#ff0000;fill-opacity:1;stroke-width:1.19236"
   cx="660.93176"
   cy="635.5387"
   r="2.5" /><circle
   id="bulb-9"
   style="display:inline;fill:#ff0000;fill-opacity:1;stroke-width:1.19236"
   cx="144.41273"
   cy="551.18518"
   r="2.5" /><circle
   id="bulb-63"
   style="display:inline;fill:#ff0000;fill-opacity:1;stroke-width:1.19236"
   cx="447.6608"
   cy="577.92371"
   r="2.5" /></g>
      </g>
</svg>
