<?xml version="1.0" encoding="UTF-8" standalone="no"?>
<!-- Generator: Adobe Illustrator 25.2.3, SVG Export Plug-In . SVG Version: 6.00 Build 0)  -->

<svg
   version="1.1"
   id="svg74"
   viewBox="0 0 46.990078 12.928832"
   sodipodi:docname="w_outline_scale_1to60_px.svg"
   inkscape:version="1.2.2 (b0a8486541, 2022-12-01)"
   xml:space="preserve"
   width="46.990074mm"
   height="12.928832mm"
   xmlns:inkscape="http://www.inkscape.org/namespaces/inkscape"
   xmlns:sodipodi="http://sodipodi.sourceforge.net/DTD/sodipodi-0.dtd"
   xmlns:xlink="http://www.w3.org/1999/xlink"
   xmlns="http://www.w3.org/2000/svg"
   xmlns:svg="http://www.w3.org/2000/svg"
   xmlns:rdf="http://www.w3.org/1999/02/22-rdf-syntax-ns#"
   xmlns:cc="http://creativecommons.org/ns#"
   xmlns:dc="http://purl.org/dc/elements/1.1/"><metadata
   id="metadata111"><rdf:RDF><cc:Work
       rdf:about=""><dc:format>image/svg+xml</dc:format><dc:type
         rdf:resource="http://purl.org/dc/dcmitype/StillImage" /></cc:Work></rdf:RDF></metadata><defs
   id="defs4179"><inkscape:path-effect
     effect="bspline"
     id="path-effect7580"
     is_visible="true"
     lpeversion="1"
     weight="30"
     steps="2"
     helper_size="0"
     apply_no_weight="true"
     apply_with_weight="true"
     only_selected="false" /></defs>
      <sodipodi:namedview
   bordercolor="#000000"
   borderopacity="1"
   gridtolerance="10"
   guidetolerance="10"
   id="namedview76"
   inkscape:current-layer="svg74"
   inkscape:cx="53.875"
   inkscape:cy="-1.5625"
   inkscape:pageopacity="0"
   inkscape:pageshadow="2"
   inkscape:window-height="2071"
   inkscape:window-maximized="0"
   inkscape:window-width="2558"
   inkscape:window-x="1272"
   inkscape:window-y="0"
   inkscape:zoom="8"
   objecttolerance="10"
   pagecolor="#ffffff"
   showgrid="false"
   inkscape:pagecheckerboard="0"
   inkscape:document-units="mm"
   units="mm"
   inkscape:showpageshadow="2"
   inkscape:deskcolor="2.5">
      </sodipodi:namedview>
      <g
   id="sign"
   inkscape:label="sign"
   transform="matrix(0.01166441,0,0,0.01166441,-3.6270016,-3.3694818)"
   style="display:inline">
            
            <g
   inkscape:groupmode="layer"
   id="layer4"
   inkscape:label="Outline"><path
     id="path7575"
     style="display:inline;fill:#0000ff"
     inkscape:label="offset"
     d="m 1401.6708,290.98034 c -46.6533,2.70609 -124.2523,11.8221 -162.3776,22.25852 -38.1253,10.43641 -54.8103,28.28107 -65.3825,46.30897 -10.5723,18.02789 -22.1265,48.37582 -27.7527,73.11292 -5.6263,24.7371 -9.0585,60.30947 -12.099,91.21374 -3.0405,30.90427 -7.7163,77.74333 -10.0771,115.32628 -2.3607,37.58295 -3.9802,90.96499 -3.8571,137.17524 0.123,46.21026 2.0695,116.01293 6.6256,148.76655 4.556,32.75362 14.7554,50.17429 21.4509,58.49591 6.6955,8.32163 14.288,13.05346 20.5891,15.16671 6.3011,2.11322 15.1639,2.91312 22.4247,1.25562 7.2607,-1.65744 17.5892,-6.83652 23.4036,-13.80951 5.8144,-6.97299 10.9038,-20.23544 14.4916,-38.24374 3.5878,-18.00831 8.0448,-52.71378 9.7267,-65.81621 1.6819,-13.10244 1.7099,-13.33682 4.1377,-33.82559 2.4278,-20.48878 8.8738,-74.89111 21.6884,-79.67067 12.8145,-4.77957 40.5334,36.86789 70.2323,66.9575 29.6989,30.0896 81.1645,68.66502 112.5303,89.22637 31.3658,20.56135 63.5122,36.80198 83.9071,43.56204 20.3948,6.76006 39.1476,8.2531 53.4351,5.99076 14.2875,-2.26233 22.2831,-7.95568 26.7733,-12.28826 4.4902,-4.33257 6.9446,-9.08165 8.2736,-11.91296 1.3291,-2.83131 2.4722,-5.73432 5.3428,-6.51185 2.8707,-0.77754 9.2214,0.0263 13.613,-0.0224 4.3916,-0.0487 9.6876,-0.99008 14.596,-3.65783 4.9083,-2.66775 12.7021,-8.84043 16.6225,-13.74001 3.9203,-4.89958 6.5812,-11.79333 11.7677,-13.13287 5.1866,-1.33955 16.3546,1.98233 20.6145,3.22725 4.26,1.24492 4.4522,1.24332 27.7104,-0.0581 23.2581,-1.30141 85.0878,-4.77016 108.2955,-6.07246 23.2076,-1.30229 23.2643,-1.30627 35.2026,-1.92191 11.9382,-0.61564 24.1258,-1.24373 37.5404,-6.21863 13.4146,-4.9749 28.6961,-17.18125 37.1304,-25.05373 8.4343,-7.87247 15.6499,-16.66388 20.4039,-25.2711 4.7539,-8.60721 10.2151,-22.76758 24.7548,-29.01788 14.5396,-6.2503 47.6501,-8.74295 60.1189,-9.68151 12.4687,-0.93857 12.5254,-0.94255 19.8339,-1.48385 7.3085,-0.5413 13.6925,-1.01419 31.5661,3.44867 17.8735,4.46287 45.6816,15.12212 61.1003,25.919 15.4188,10.79688 26.1836,27.95315 36.9586,37.99439 10.7751,10.04124 28.743,19.66231 41.8152,20.29853 13.0721,0.63622 29.9643,-7.28722 36.299,-10.25862 6.3346,-2.97139 6.3426,-2.97783 54.1129,3.44542 47.7702,6.42325 19.1775,2.57823 51.7081,10.76578 32.5305,8.18755 81.3766,24.97043 104.9562,28.99472 23.5796,4.0243 37.9062,-1.92571 63.962,1.72401 26.0557,3.64973 76.368,17.95481 102.0071,26.37779 25.6391,8.42299 31.0955,12.23876 37.5007,15.26868 6.4052,3.02992 13.7494,5.27279 20.3147,5.45337 6.5653,0.18059 12.339,-1.68793 18.1973,-6.06738 5.8584,-4.37945 11.8076,-11.25444 16.3318,-15.20794 4.5243,-3.95351 7.6171,-5.00042 13.7632,-5.63837 6.1462,-0.63795 16.308,-0.90025 22.3137,-0.70481 6.0057,0.19545 11.0572,0.99934 16.776,-0.10797 5.7188,-1.10732 15.918,-4.86358 21.6401,-8.2439 5.7222,-3.38032 10.7829,-8.63857 19.0065,-8.79151 8.2237,-0.15294 29.0435,5.83326 37.7052,7.0962 8.6617,1.26293 29.254,1.51415 54.0539,3.97742 24.7999,2.46326 63.1174,7.6782 81.2017,13.94377 18.0844,6.26557 24.4659,17.2786 32.6908,24.27849 8.225,6.99989 22.4925,14.02138 35.2501,13.47883 12.7576,-0.54256 26.5733,-8.7452 33.5133,-18.5069 6.94,-9.7617 10.473,-26.90568 11.4372,-40.82171 0.9642,-13.91603 0,-33.87931 -2.2948,-53.19513 -2.2964,-19.31582 -7.4573,-50.85828 6.3757,-63.44804 13.833,-12.58976 55.7424,-14.61494 70.8851,-8.35865 15.1427,6.2563 13.6351,23.38715 19.6459,38.09131 6.0109,14.70417 19.4074,28.49271 51.5526,40.7452 32.1452,12.25248 88.1797,24.05101 117.0244,30.63439 28.8448,6.58339 43.5204,10.92179 57.2803,11.98187 13.7599,1.06008 27.9445,-0.75125 41.5781,-5.67354 13.6335,-4.92229 26.7146,-12.94244 35.903,-20.47067 9.1883,-7.52823 14.4914,-14.55543 17.3151,-22.82564 2.8238,-8.27021 3.1866,-17.78524 0.027,-27.08099 -3.1593,-9.29574 -9.8367,-18.39172 -17.4225,-24.02222 -7.5858,-5.63049 -16.0986,-7.80336 -33.6761,-12.24828 -17.5774,-4.44493 -46.8976,-11.83708 -49.4044,-20.64237 -2.5067,-8.8053 22.7816,-24.22484 32.2691,-30.00983 9.4875,-5.78499 9.4988,-5.79184 20.4222,-12.50324 10.9234,-6.71139 40.0406,-24.60124 54.1459,-34.32235 14.1054,-9.72111 22.6011,-17.75283 28.1304,-28.93312 5.5292,-11.1803 11.7177,-32.74807 -6.0275,-48.68735 -17.7452,-15.93928 -33.5725,-22.08791 -72.3368,-37.14745 -38.7643,-15.05955 -38.7774,-15.06538 -53.4348,-20.83053 -14.6574,-5.76515 -53.7293,-21.13235 -71.1053,-27.46117 -17.3759,-6.32882 -24.64,-7.83821 -29.0015,-9.34262 -4.3614,-1.50441 -8.7205,-4.00314 -9.6586,-7.61006 -0.9382,-3.60692 0.9135,-10.71296 3.4424,-16.90638 2.5289,-6.19342 7.0247,-14.84757 7.8724,-25.59514 0.8476,-10.74757 -1.5166,-24.40396 -8.4216,-34.00743 -6.905,-9.60347 -20.9246,-16.42265 -28.3562,-18.30454 -7.4316,-1.8819 -16.673,-1.00029 -35.683,0.19677 -19.0101,1.19706 -50.6966,2.9223 -79.5973,4.5015 -28.9007,1.57919 -70.6522,3.86747 -89.0522,5.34192 -18.4,1.47445 -25.7149,3.11822 -32.3545,7.72143 -6.6396,4.60322 -17.0294,15.23444 -33.9455,18.96841 -16.9161,3.73397 -51.8498,3.05581 -68.2876,-3.99477 -16.4377,-7.05057 -25.392,-25.15128 -32.7526,-35.88018 -7.3605,-10.7289 -17.9271,-21.11513 -26.9422,-25.09831 -9.0151,-3.98319 -22.2684,-4.06891 -31.732,-3.67965 -9.4635,0.38927 -21.5167,1.51271 -35.6829,3.30033 -14.1663,1.78763 -38.81,5.27828 -75.7077,10.28136 -36.8976,5.00307 -100.2777,13.44819 -129.9888,17.70709 -29.7111,4.2589 -42.0045,6.69422 -51.0393,10.00824 -9.0348,3.31402 -19.0177,8.763 -24.9983,15.89116 -5.9806,7.12817 -7.383,15.27391 -7.9602,21.08263 -0.5772,5.80872 -0.4576,11.63386 -0.014,18.32987 0.4436,6.69601 1.4987,18.57866 -2.5184,25.20457 -4.0171,6.62592 -15.7126,12.21555 -23.9712,17.54071 -8.2586,5.32516 -18.4335,13.8529 -25.0082,21.6319 -6.5747,7.779 -13.8164,19.88643 -22.3712,8.31122 -8.5548,-11.57521 -24.0947,-54.60487 -34.9442,-74.80216 -10.8495,-20.19729 -23.1185,-30.11776 -34.0696,-35.69198 -10.9512,-5.57421 -21.7107,-7.70211 -32.8326,-7.0226 -11.1219,0.67951 -22.6158,4.17809 -34.6175,12.64888 -12.0018,8.4708 -25.7754,23.29525 -33.5889,26.08634 -7.8136,2.79108 -13.1556,-5.19501 -23.7609,-13.80308 -10.6053,-8.60807 -26.9715,-18.5762 -43.8747,-21.79632 -16.9033,-3.22012 -34.3633,0.31703 -48.8533,8.15896 -14.49,7.84192 -27.1539,21.21922 -35.4176,22.41274 -8.2637,1.19352 -15.7564,-9.29148 -40.3827,-14.78275 -24.6262,-5.49128 -29.277,-5.65042 -69.4354,-7.02486 -40.1583,-1.37444 -40.1824,-1.37599 -55.8947,-2.1811 -15.7124,-0.80511 -57.5866,-2.95042 -73.3114,-3.75552 -15.7249,-0.8051 -15.7848,-0.80671 -19.2242,-0.75111 -3.4394,0.0556 -12.4915,0.20453 -19.9826,3.65886 -7.491,3.45433 -18.2664,12.47953 -21.9197,20.80105 -3.6533,8.32152 -2.5143,21.39041 -0.8912,28.44729 1.623,7.05689 4.8121,12.81235 6.0076,14.97156 1.1956,2.15921 1.1956,2.16121 1.1956,2.16221 13.2715,12.40104 26.5438,24.80283 16.4649,30.14872 -10.0788,5.34589 -13.7424,5.15865 -45.3802,3.54154 -31.6377,-1.61711 -31.6618,-1.61866 -47.3674,-2.42377 -15.7056,-0.80511 -57.5619,-2.95042 -73.28,-3.75552 -15.7181,-0.8051 -15.778,-0.80671 -18.5217,-0.48658 -2.7437,0.32014 -10.0007,1.1756 -16.8914,2.9458 -6.8906,1.77019 -17.9946,5.63064 -22.9846,1.2327 -4.99,-4.39794 -7.1567,-19.99468 -10.29,-32.84013 -3.1333,-12.84545 -8.8122,-29.96831 -13.5871,-41.00342 -4.7748,-11.03512 -9.1674,-17.56117 -17.0614,-28.34211 -7.894,-10.78093 -15.3418,-20.60842 -34.8457,-31.8438 -19.5039,-11.23538 -40.6009,-13.22055 -47.3557,-14.77626 -6.7547,-1.55571 -14.0776,-4.69573 -12.6373,-12.60194 1.4403,-7.90621 11.6905,-24.36751 17.1503,-37.12042 5.4598,-12.75291 7.0861,-23.31477 6.8282,-32.25635 -0.258,-8.94159 -2.3919,-16.27361 -6.4411,-23.82814 -4.0492,-7.55453 -10.0155,-15.34305 -18.1669,-20.2478 -8.1514,-4.90475 -18.5081,-6.93256 -35.0142,-9.38825 -16.506,-2.4557 -39.1631,-5.33829 -85.8163,-2.6322 z"
     inkscape:path-effect="#path-effect7580"
     inkscape:original-d="m 1425.6472,285.38915 c -70.632,8.27754 -148.231,17.39355 -211.9637,24.90062 -12.5148,13.38625 -29.1998,31.23088 -41.7124,44.61163 -8.6204,22.67899 -20.1746,53.02692 -28.8651,75.81625 -2.554,26.68216 -5.9862,62.25453 -8.5806,88.93093 -3.5058,35.13029 -8.1816,81.96935 -11.6895,117.09765 -1.2136,40.03752 -2.8332,93.41956 -4.0488,133.45508 1.484,52.38431 3.4305,122.18698 4.8695,174.62883 7.6766,13.05037 17.876,30.47102 25.4983,43.55147 5.7584,3.552 13.3509,8.28383 19.1305,11.92259 6.8083,0.5897 15.6711,1.3896 22.373,2.0191 7.8129,-3.92899 18.1414,-9.10805 25.9187,-12.99657 3.8682,-10.04376 8.9576,-23.3062 12.7784,-33.29925 3.3437,-26.0281 7.8007,-60.73357 11.1425,-86.76367 0.022,-0.17478 0.05,-0.40916 0.07,-0.58594 4.8356,-40.80076 11.2816,-95.2031 16.1152,-136.00585 20.8206,31.22607 48.5395,72.87353 69.3091,104.13647 38.6211,28.90825 90.0867,67.48366 128.664,96.43856 24.1489,12.16605 56.2954,28.40664 80.4189,40.62819 16.6543,1.30147 35.4071,2.79451 55.3912,4.41007 8.5859,-6.12025 16.5815,-11.81359 23.7084,-16.88183 1.8653,-3.58809 4.3196,-8.33718 6.1102,-11.82312 0.8708,-2.17644 2.0139,-5.07945 2.8578,-7.25758 4.8887,0.59321 11.2394,1.39703 16.0465,2.03102 3.9731,-0.70506 9.2691,-1.64646 13.2402,-2.35352 5.8463,-4.62849 13.6401,-10.80115 19.4844,-15.43164 1.9967,-5.16931 4.6576,-12.06307 6.6523,-17.23438 8.377,2.49241 19.545,5.81428 27.92,8.30469 0.1451,-2e-4 0.3373,-0.002 0.4804,-0.004 46.3733,-2.60056 108.203,-6.06932 154.5743,-8.67188 0.044,-0.002 0.1007,-0.006 0.1425,-0.01 23.8335,-1.24979 36.0211,-1.87789 51.3862,-2.64823 11.4629,-9.16078 26.7444,-21.36714 38.2037,-30.51586 5.4127,-6.59255 12.6283,-15.38396 18.039,-21.97851 4.1082,-10.6161 9.5695,-24.77646 13.6531,-35.40092 24.9819,-1.90168 58.0924,-4.39432 82.9876,-6.24752 0.044,-0.002 0.1007,-0.006 0.1425,-0.01 14.5736,-1.10055 20.9576,-1.57344 31.4024,-2.32614 25.3143,9.67198 53.1224,20.33121 75.875,29.08399 8.0746,12.86819 18.8395,30.02443 26.9121,42.89062 13.477,7.21682 31.4449,16.83792 44.9199,24.05274 12.6701,-5.94158 29.5623,-13.86502 42.2305,-19.8086 0,-10e-4 0.01,-0.005 0.01,-0.008 95.5617,12.82499 66.9497,8.97737 95.539,12.84767 36.4778,12.50283 85.3239,29.2857 121.7283,41.82425 10.7459,-4.4615 25.0725,-10.4115 35.8164,-14.875 41.3748,11.7348 91.6871,26.03988 137.4967,39.09385 5.479,3.79307 10.9354,7.60883 16.3691,11.44727 7.3669,2.22019 14.7111,4.46306 22.0326,6.72861 5.7963,-1.89119 11.57,-3.7597 17.321,-5.60553 5.9719,-6.89768 11.9211,-13.77268 17.8477,-20.625 3.1156,-1.06962 6.2084,-2.11655 9.2786,-3.14082 9.2261,-0.26025 19.3879,-0.52256 27.6101,-0.7127 3.7897,0.60393 8.8412,1.40784 12.6289,2.00977 7.6504,-2.81619 17.8496,-6.57244 25.498,-9.39063 3.7959,-3.94325 8.8566,-9.20148 12.6516,-13.14553 12.6597,3.61076 33.4795,9.59697 41.8783,12.04103 8.9171,0.0858 29.5094,0.33705 44.23,0.53959 34.8823,4.72164 73.1998,9.93658 104.5788,14.23297 4.8131,8.24451 11.1946,19.25754 15.9538,27.53269 11.6773,5.7129 25.9448,12.7344 38.8832,19.13567 12.5593,-7.46598 26.375,-15.66859 37.61,-22.32979 2.6664,-12.85182 6.1993,-29.9958 8.8323,-42.86 -0.7209,-14.97146 -1.6834,-34.93474 -2.4063,-49.9082 -3.8452,-23.66234 -9.0061,-55.2048 -12.9023,-78.85617 31.5355,-1.54547 73.4449,-3.57065 104.9665,-5.07228 -1.2147,14.03755 -2.7222,31.16841 -4.1174,46.78665 13.4193,13.7659 26.8158,27.55448 40.1897,41.36575 50.899,10.68975 106.9335,22.48828 152.6291,32.13732 11.9964,3.517 26.672,7.85539 39.974,11.81713 14.2073,-1.83402 28.3919,-3.64535 42.5538,-5.43399 13.1038,-8.04286 26.1849,-16.06299 39.2433,-24.06047 5.3258,-7.04991 10.6288,-14.07714 15.9092,-21.08168 0.3854,-9.53772 0.7482,-19.05275 1.0882,-28.54511 -6.6548,-9.11872 -13.3322,-18.21472 -20.0324,-27.2881 -8.4902,-2.19556 -17.003,-4.36842 -25.5385,-6.51861 -26.6195,-6.73964 -55.9397,-14.13178 -79.9264,-20.15086 18.9672,-11.56365 44.2555,-26.98318 63.2207,-38.54883 0.01,-0.004 0.021,-0.0113 0.029,-0.0176 21.8389,-13.41638 50.9561,-31.30623 72.793,-44.72461 6.3725,-6.02564 14.8682,-14.05739 21.2394,-20.07936 4.7028,-16.33368 10.8913,-37.90145 15.5467,-54.18253 -40.1501,-15.62913 -55.9774,-21.77775 -133.5068,-51.8651 -0.01,-0.004 -0.023,-0.01 -0.035,-0.0156 -29.3029,-11.52439 -68.3748,-26.89158 -97.6797,-38.41797 -5.447,-1.13103 -12.7111,-2.6404 -18.1601,-3.77343 -3.2583,-1.90343 -7.6174,-4.40217 -10.9007,-6.24851 1.4074,-5.33651 3.259,-12.44257 4.6292,-17.76517 3.6805,-7.06388 8.1763,-15.71802 12.2304,-23.543 -2.3416,-13.67908 -4.7058,-27.33548 -7.0927,-40.9692 -11.4356,-5.59601 -25.4552,-12.41521 -34.3748,-16.71999 -5.9588,0.54794 -15.2002,1.42955 -23.1108,2.20472 -30.1088,1.61789 -61.7953,3.34314 -88.2827,4.80675 -31.3127,1.71721 -73.0642,4.00549 -104.3789,5.7207 -5.4851,1.23381 -12.8,2.87757 -18.2871,4.10938 -7.7914,7.97444 -18.1812,18.60568 -25.9746,26.57812 -26.0394,-0.52862 -60.9731,-1.20678 -87.1243,-1.69132 -6.6974,-13.60698 -15.6518,-31.70767 -22.4079,-45.29619 -7.9697,-7.87871 -18.5363,-18.2649 -26.5977,-26.14378 -9.9912,-0.0874 -23.2445,-0.17318 -33.1328,-0.21431 -9.0388,0.84358 -21.092,1.96701 -30.1328,2.80859 -19.2945,2.71351 -43.9382,6.20415 -64.5602,9.14463 -53.1732,7.06544 -116.5533,15.51056 -166.7208,22.21483 -9.2556,1.81535 -21.549,4.25067 -30.8483,6.11105 -8.7711,4.7772 -18.754,10.22621 -29.2425,15.96145 -1.4502,8.53215 -2.8526,16.6779 -4.1153,23.90308 0.1133,4.38864 0.2329,10.21378 0.3006,14.63996 0.8207,8.96414 1.8758,20.84679 2.653,29.87785 -8.8405,4.21332 -20.536,9.80294 -29.3964,14.04944 -7.654,6.41133 -17.8289,14.93903 -25.5347,21.40109 -5.435,9.10215 -12.6767,21.20959 -18.1387,30.32618 -11.6271,-32.28094 -27.1669,-75.31061 -38.8496,-107.57422 -10.0236,-8.14588 -22.2926,-18.06638 -33.473,-27.06555 -10.7368,-2.15057 -21.4963,-4.27846 -32.2784,-6.38367 -11.4713,3.47591 -22.9652,6.97449 -34.4818,10.49576 -12.4816,13.43558 -26.2553,28.26 -37.5129,40.37477 -4.3441,-6.55088 -9.6861,-14.53697 -14.5632,-21.77143 -16.3435,-9.99081 -32.7097,-19.95894 -49.0986,-29.90439 -17.4373,3.51447 -34.8973,7.05162 -52.38,10.61145 -11.4932,12.142 -24.157,25.51932 -34.5477,36.49409 -6.1116,-8.60679 -13.6044,-19.09175 -20.4406,-28.6036 -42.4412,-1.47574 -47.092,-1.63489 -127.3916,-4.35917 -0.018,-2e-4 -0.042,-0.002 -0.062,-0.004 -31.4047,-1.60798 -73.2789,-3.7533 -104.6856,-5.36328 -0.043,-2e-4 -0.1029,-0.002 -0.1484,-0.004 -6.8337,0.0901 -15.8858,0.23906 -22.754,0.37437 -8.1153,6.79349 -18.8907,15.8187 -27.0502,22.65654 0.8792,9.80522 2.0182,22.8741 2.8474,32.67221 2.3928,4.3176 5.5818,10.07308 7.9726,14.38868 10e-4,0.003 10e-4,0.005 0,0.006 0,0 26.5657,24.7794 39.8145,37.20312 -33.4272,-1.73229 -37.0908,-1.91953 -100.3496,-5.12881 -0.018,-2e-4 -0.042,-0.002 -0.062,-0.004 -31.3912,-1.60798 -73.2475,-3.7533 -104.6407,-5.36328 -0.043,-2e-4 -0.1029,-0.002 -0.1484,-0.004 -5.4418,0.6426 -12.6988,1.49807 -18.1426,2.13867 -8.3422,2.8855 -19.4462,6.74594 -27.7962,9.66371 -1.6,-11.70399 -3.7667,-27.30073 -5.4167,-38.99183 -4.6414,-13.99646 -10.2937,-31.12816 -15.4746,-46.65821 -4.3699,-6.54872 -8.7625,-13.07476 -13.1777,-19.57812 -11.3736,-15.06012 -18.8214,-24.88763 -34.1887,-45.11232 -23.6635,-2.25149 -44.7605,-4.23665 -52.7742,-4.9659 -5.4864,-2.38493 -12.8093,-5.52495 -18.3186,-7.85492 8.3844,-13.45125 18.6346,-29.91253 27.9178,-44.83477 1.649,-10.58455 3.2753,-21.14641 4.8789,-31.68559 -2.1113,-7.35472 -4.2452,-14.68675 -6.4018,-21.99611 -5.9436,-7.81118 -11.9099,-15.59968 -17.8988,-23.3655 -10.334,-2.05049 -20.6907,-4.0783 -31.0701,-6.08343 -22.6346,-2.9053 -45.2917,-5.7879 -67.9717,-8.64783 z"
     sodipodi:nodetypes="ccccccccccccccccccccccccccccccccccccccccccccccssssssccccccccscccccsccccsssssccccccccccccscccccccccccccccccccccccssscssscscccccccccacccccccsscccsssscc"
     transform="translate(-1.1252176e-5)" /></g><g
   id="group_text"
   inkscape:label="group_text"
   style="display:inline"
   transform="translate(-1.1252176e-5)">
                  <path
   id="_x35__1_"
   d="m 2370.5,507.1 c -28.3,13.1 -42.8,41.9 -51.3,62.3 -1.7,4.2 -4,6.7 -6.2,6.9 -2.2,0.1 -4.8,-2.1 -7.1,-6 -10.3,-17.8 -21.6,-31.2 -35.3,-45.8 -16.3,-17.3 -44.6,-23.5 -61.9,-13.4 -4.2,2.4 -14.7,11.6 -23.3,43.9 -8.8,33.5 -12.4,80.3 -10.8,139.1 1.8,62.6 16.2,105.9 28,131.2 13.7,29.4 30.4,48.3 42.6,48.3 0,0 0,0 0,0 7.7,0 13,-2.1 16.1,-6.4 6.7,-9.3 1,-26.2 -7.5,-51.7 -14.1,-41.8 -35.4,-105.1 -17.9,-181.3 0.9,-3.7 4.2,-16.1 11.5,-18.1 6.1,-1.7 21,3.1 52,54 3.9,6.3 10.6,10 18,9.9 7.4,-0.1 13.9,-4.1 17.5,-10.6 l 0.4,-0.8 c 13.5,-24.4 33.9,-61.3 45.9,-57.9 6.9,1.9 10.3,13.8 11.6,18.3 13.1,45.5 5.6,119.5 0.1,173.5 -5,49.1 -6.1,63.4 1.4,66.2 6.1,2.3 11.9,1.7 17.3,-1.7 24.7,-15.6 34.9,-94.8 42.3,-178.1 0.3,-4 6.8,-99.8 -36.3,-165.4 -12.2,-18.6 -29.4,-24.6 -47.1,-16.4 z"
   inkscape:connector-curvature="0" />
                  <path
   id="_x34_-copy_3_"
   d="m 2130.1,718.2 c -37,2.5 -67.7,5.2 -100.1,8 l -8.3,0.7 c -5.3,0.5 -10.4,1.1 -15.4,1.8 -11.8,1.5 -23,3 -34,1.5 1.6,-3.9 7.5,-14.1 28.5,-40.3 17.5,-21.9 40.3,-48.7 62.4,-74.5 21,-24.7 40.9,-48 54.2,-64.7 4.6,-5.8 5.7,-17.3 2.3,-24.6 -2,-4.3 -5.3,-6.7 -9.4,-6.8 -31.5,-0.9 -67.1,-3.1 -101.6,-5.2 -35,-2.2 -71.3,-4.4 -103.6,-5.3 -4.3,-0.1 -14.2,0.8 -16.4,6.2 -1.4,3.4 0.7,7.7 4.5,13.1 6.9,9.8 14.1,19.9 29.1,27 9.5,4.5 23.9,5 52.6,6 14.1,0.5 28.2,2.4 42.4,2.6 10.7,0.1 19.6,-0.1 21.5,4.2 2,4.6 -5,11.5 -7,13.8 -23.4,28.4 -47.4,55.9 -70.6,82.5 -22.8,26.1 -46.4,53.2 -69.5,81.1 l -0.3,0.4 c -5.1,7.8 -5.1,18.3 0.1,28 4.7,8.9 12.5,14.9 19.4,14.9 47,-0.7 103.2,-4.9 152.8,-8.6 11.4,-0.8 22.5,-1.7 33.1,-2.4 h 0.5 l 0.5,-0.1 c 23.8,-7.4 54.5,-34.6 51.5,-50.1 -1.1,-4.8 -5.1,-10.3 -19.2,-9.2 z"
   inkscape:connector-curvature="0" />
                  <path
   id="_x32__1_"
   d="m 1643,777.4 -0.9,-14.1 c -0.9,-13.5 -1.8,-24.5 -2.5,-32 -1.3,-14.8 -2.8,-28.3 -11.3,-98.5 -1.4,-11.2 -1.1,-9.2 -1.3,-11.1 -8.1,-67.3 -8.2,-84.5 -20.5,-106.5 -4,-7.2 -8,-12.4 -10.1,-15 -5.4,-6.7 -26.8,-37.5 -62.3,-38.1 -16,-0.2 -26.8,1.1 -34.8,4.2 -10.2,4 -14.4,13.9 -17.1,19.1 -36.5,70.4 -37.4,264.6 -31.4,278.7 1.8,4.3 4.4,8.1 4.4,8.1 2.3,3.3 4.6,5.7 6.2,7.1 v 0 c 0,0 5.7,4.9 12.7,6.9 1.6,0.5 3.5,0.9 5.7,0.4 1.2,-0.2 2.3,-0.7 3.4,-1.4 9.9,-6.3 12.7,-29.3 17.1,-72.9 2.6,-25.7 5.6,-54.9 11.3,-81.2 1,-4.6 4.8,-7.7 9.2,-7.7 0,0 0,0 0,0 7.3,0 15.2,1.6 24,4.9 25.2,9.3 39,38.5 40.7,86.7 1.6,42.6 15,140.1 20.3,154 6.1,16.4 21.8,43.1 33.4,43.1 0.8,0 1.5,-0.1 2.3,-0.4 5.2,-1.8 7.7,-9 6.7,-43.5 -0.7,-23.4 -2.8,-54.7 -5.2,-90.8 z m -62.1,-190.1 c -2.2,2.8 -5.5,4.4 -9,4.6 -0.9,0 -1.8,0 -2.7,-0.2 l -43.1,-7.1 c -6.5,-1.1 -11,-7.1 -10,-13.5 l 5.2,-34.3 c 0.6,-3.8 3,-7.1 6.5,-8.9 3.6,-1.8 7.8,-1.8 11.3,0.1 12.2,6.4 22.6,15 30.8,25.6 5.2,6.7 9.5,14.1 12.7,22 1.7,3.9 1,8.3 -1.7,11.7 z"
   inkscape:connector-curvature="0" />
                  <path
   id="_x31__1_"
   d="m 1338.9,649.6 c -7.7,-16.1 -13.5,-29.9 -17.5,-40 -0.3,-0.7 -0.7,-1.5 -0.9,-2.5 -0.7,-3 0,-6.2 1.6,-8.8 60.7,-99.8 146.2,-158.8 189.9,-235.8 0.5,-0.9 0.9,-1.8 1.2,-2.8 2.7,-9.5 2,-16.8 -1,-22.4 -12.5,-22.7 -123.1,-12.8 -123.1,-12.8 -39.2,3.9 -92.2,10.7 -155.2,22.9 0,0 -16.5,6.6 -29,24 -35.9,50 -49.9,267.4 -49.9,267.4 0,0 -15.7,243.6 15.3,320.6 2,5.1 5.8,7.6 5.8,7.6 24.2,14.2 23,-27.8 32.4,-101.8 4.1,-37.8 9.2,-84.9 17.3,-145.3 2.9,-24.8 9.1,-47.4 15,-71.4 0.5,-1 2.1,-1.1 2.8,0.1 7.2,12.8 17.5,30.7 30.7,51.7 11.5,18.2 34.6,54.9 59.7,85.7 44.9,55.2 91,85.3 135.8,114.6 0,0 81.7,53.4 117.2,39.8 2,-0.8 3.1,-2.2 3.1,-2.2 0.2,-0.3 0.4,-0.6 0.5,-0.9 7,-14.9 -65.6,-47.2 -130.4,-109.9 -68.2,-66 -104.9,-143.3 -121.3,-177.8 z M 1259,553.3 c -2.5,2.2 -5.5,3.4 -8.5,3.4 -1.7,0 -3.4,-0.4 -5.1,-1.1 -4.9,-2.2 -8,-7.1 -8,-12.6 -0.1,-42.2 -0.2,-75.4 17.4,-123.3 5.7,-15.6 14.8,-24.8 27,-27.3 3.9,-0.8 8.1,-1.9 12.5,-3 8.1,-2.1 17.3,-4.4 28.6,-6.2 18.7,-3.1 45.9,-5.2 65.9,-2 5.1,0.8 9.2,4.1 11,8.7 1.7,4.4 0.9,9.3 -2.1,13.1 -20.4,25.4 -63.5,77 -95.6,109.3 -13.9,13.8 -28.4,27.7 -43.1,41 z"
   inkscape:connector-curvature="0" />
                  <path
   id="_x39_-copy_1_"
   d="m 3343.2,678.3 c -36.6,6.4 -66.7,12.3 -98.7,18.6 l -8.2,1.6 c -5.2,1 -10.2,2.2 -15.1,3.4 -11.6,2.8 -22.5,5.4 -33.7,5.1 1.1,-4.1 6,-14.8 24.1,-43.1 15.1,-23.7 35,-52.7 54.2,-80.7 18.3,-26.8 35.6,-52 47,-70.1 4,-6.3 3.8,-17.8 -0.3,-24.7 -2.4,-4 -6,-6.1 -10.1,-5.7 -31.4,2.5 -67.1,4 -101.5,5.6 -35.1,1.5 -71.3,3.1 -103.6,5.7 -4.3,0.3 -14,2.3 -15.7,7.9 -1.1,3.6 1.5,7.5 5.9,12.5 7.9,9 16.1,18.3 31.8,23.7 9.9,3.4 24.3,2.4 53,0.4 14.1,-1 28.3,-0.6 42.4,-1.9 10.6,-1 19.5,-2.2 21.9,1.9 2.5,4.3 -3.8,12 -5.5,14.5 -20.3,30.8 -41.3,60.6 -61.5,89.5 -19.9,28.4 -40.5,57.8 -60.5,88 l -0.2,0.4 c -4.3,8.3 -3.1,18.8 3.1,27.9 5.6,8.3 14,13.5 20.8,12.8 46.6,-5.6 102.1,-15.8 151,-24.7 11.2,-2 22.2,-4 32.7,-5.9 l 0.5,-0.1 0.4,-0.2 c 22.9,-9.9 50.5,-40.1 45.9,-55.2 -1.6,-4.8 -6.2,-9.8 -20.1,-7.2 z"
   inkscape:connector-curvature="0" />
                  <path
   id="_x34_-copy_2_"
   d="m 1925.7,815 c -37,2.5 -67.7,5.2 -100.1,8 l -8.3,0.7 c -5.3,0.5 -10.4,1.1 -15.4,1.8 -11.8,1.5 -23,3 -34,1.5 1.6,-3.9 7.5,-14.1 28.5,-40.3 17.5,-21.9 40.3,-48.7 62.4,-74.5 21,-24.7 40.9,-48 54.2,-64.7 4.6,-5.8 5.7,-17.3 2.3,-24.6 -2,-4.3 -5.3,-6.7 -9.4,-6.8 -31.5,-0.9 -67.1,-3.1 -101.6,-5.2 -35,-2.2 -71.3,-4.4 -103.6,-5.3 -4.3,-0.1 -14.2,0.8 -16.4,6.2 -1.4,3.4 0.7,7.7 4.5,13.1 6.9,9.8 14.1,19.9 29.1,27 9.5,4.5 23.9,5 52.6,6 14.1,0.5 28.2,2.4 42.4,2.6 10.7,0.1 19.6,-0.1 21.5,4.2 2,4.6 -5,11.5 -7,13.8 -23.4,28.4 -47.4,55.9 -70.6,82.5 -22.8,26.1 -46.4,53.2 -69.5,81.1 l -0.3,0.4 c -5.1,7.8 -5.1,18.3 0.1,28 4.7,8.9 12.5,14.9 19.4,14.9 47,-0.7 103.2,-4.9 152.8,-8.6 11.4,-0.8 22.5,-1.7 33.1,-2.4 h 0.5 l 0.5,-0.1 c 23.8,-7.4 54.5,-34.6 51.5,-50.1 -1.1,-4.8 -5.1,-10.3 -19.2,-9.2 z"
   inkscape:connector-curvature="0" />
                  <path
   id="_x31_0-copy_1_"
   d="m 3500.3,858.5 c -35.9,-9.4 -65.8,-16.6 -97.5,-24.2 l -8.1,-2 c -5.1,-1.2 -10.2,-2.2 -15.2,-3.2 -11.7,-2.3 -22.7,-4.5 -32.7,-9.4 2.7,-3.2 11.6,-10.9 39.8,-29.1 23.6,-15.2 53.7,-33.3 82.9,-50.8 27.8,-16.7 54,-32.5 71.9,-44.2 6.2,-4 10.9,-14.6 10,-22.6 -0.5,-4.7 -2.9,-8 -6.8,-9.4 -29.6,-10.8 -62.7,-24.2 -94.6,-37.2 -32.5,-13.2 -66.2,-26.9 -96.6,-38 -4.1,-1.5 -13.7,-3.7 -17.6,0.7 -2.4,2.8 -1.8,7.5 0.1,13.8 3.4,11.4 7,23.4 19,34.8 7.6,7.3 21.1,12.3 48,22.4 13.2,5 26,11.2 39.4,15.9 10.1,3.5 18.7,6.1 19.1,10.9 0.4,5 -8.4,9.3 -11,10.9 -31.3,19.5 -62.8,38 -93.2,55.8 -29.9,17.5 -60.9,35.7 -91.7,54.8 l -0.4,0.3 c -7.4,5.8 -10.7,15.7 -8.8,26.6 1.7,9.9 7.1,18 13.6,20.3 44.7,14.3 99.4,28.2 147.6,40.4 11,2.8 21.8,5.5 32.2,8.2 l 0.5,0.1 h 0.5 c 25,0.5 62.7,-15.4 64.8,-31.1 0.6,-4.7 -1.5,-11.2 -15.2,-14.7 z"
   inkscape:connector-curvature="0" />
                  <path
   id="_x38__1_"
   d="m 3076.4,779 c -18.7,-86 -43,-174.5 -54,-210 -0.1,-0.3 -0.2,-0.8 -0.4,-1.5 -0.8,-3.7 -2.6,-11.5 -8,-19.3 -13.7,-19.7 -39.3,-26.7 -58.6,-24.9 -11.7,1.1 -20.2,5.3 -23.4,6.9 v 0 c -0.8,0.4 -1.5,0.8 -2.2,1.2 -4.1,2.6 -14.6,9.9 -22.7,22.6 -24.7,38.9 -53.2,299.1 -31.5,347.6 2.6,5.8 6.1,9.1 10.3,9.8 8.7,1.4 15.7,-2.3 16.6,-2.8 1.3,-0.7 10.3,-6.2 13.6,-23 4.8,-24.7 8,-64.9 11.5,-107.5 2.2,-27.6 4.5,-56.2 7.3,-81.1 0.1,-0.6 0.1,-1.2 0.2,-2 0.3,-3.8 0.7,-8.9 4.1,-12.4 6.4,-6.5 24,-8.1 37.3,-0.2 6.6,3.9 10.2,8.9 11.7,10.9 18.9,26.4 24.1,57.7 24.1,57.7 20.1,96.7 20.1,96.7 38.3,171.4 0.1,0.5 11.3,45.3 32.6,45.5 0,0 0.1,0 0.1,0 3.9,0 7.3,-1.8 9.8,-5.2 6.7,-9 7.9,-31.3 3.7,-68.2 -3.3,-29.6 -10.2,-68.5 -20.4,-115.5 z m -91.9,-135.4 c -3.2,1.7 -8.3,2.5 -13.9,2.5 -11.3,0 -24.7,-3 -29.5,-7 -4.6,-3.8 -5,-8.6 -2.7,-29.9 2.2,-19.6 3.9,-27.2 7.9,-31.1 0.9,-0.9 1.8,-1.6 3.1,-2.2 10.5,-4.6 25.5,10.4 26.4,11.3 0,0 10.7,11.1 14.4,32.6 0.4,2.3 0.5,4.7 0.7,5.7 0.8,6.5 1.8,13.6 -6.4,18.1 z"
   inkscape:connector-curvature="0" />
                  <path
   id="_x37__1_"
   d="m 2913.3,472.5 c -1.9,-7.4 -2.9,-11.1 -4.9,-13.7 -7.8,-9.8 -24.6,-8.3 -53.1,-4.8 -19.4,2.4 -40.6,5.4 -63.5,9 0,0 0,0 0,0 -0.5,0.1 -37.8,6.3 -77.7,11.2 -70.8,8.7 -123.3,11.3 -127.1,27.6 -0.5,2.3 -0.7,5.2 -0.5,11 0.2,7.2 0.9,35.9 14,43.5 13.3,7.8 27.8,-13 72.1,-21.1 16.1,-2.9 24.2,-4.1 31.3,-0.8 22.8,10.9 17.9,55 19.9,123.6 0,0 2.3,81.9 24.5,176.7 0,0 17.9,77.5 50.2,87.7 0.9,0.3 1.8,0.4 2.6,0.4 1.8,0 3.4,-0.6 4.8,-1.8 2.9,-2.4 8.2,-6.9 1.6,-71.8 -3.5,-34.9 -9.3,-75.6 -13.1,-102.5 -1.9,-13.7 -3.5,-24.6 -3.8,-28.3 -2.3,-25.8 -4.6,-48.2 -6.6,-67.9 0,0 -5.6,-58.9 -2.3,-108.4 0.3,-3.9 1.1,-7.1 2.4,-9.9 0,0 1.6,-3.3 4.2,-6.2 8.5,-9.2 30.3,-12.8 30.3,-12.8 18,-3 27,-4.5 35.3,-4.9 42.6,-2.3 56.5,3.8 62.1,-4.7 3.8,-5.8 1.3,-15.6 -2.7,-31.1 z"
   inkscape:connector-curvature="0" />
                  <path
   id="_x36__1_"
   d="m 2705.2,900.7 c -11.6,-22.6 -23.6,-45.9 -33.4,-72.3 -17.9,-48.4 -25.4,-95 -32,-136.1 -4.6,-29 -9,-56.4 -16.5,-81.4 -1.5,-4.9 -4.1,-9.4 -7.5,-13 -9.5,-9.9 -20.1,-14.3 -23.8,-15.4 -17.8,-5.5 -33.2,0.2 -39,2.4 -2.9,1.1 -15.5,6.2 -27.4,19.6 -9.9,11.1 -15.7,23.7 -24.8,63.4 -5.8,25.1 -9.1,44.7 -10.6,53.3 -6.6,39.5 -10.2,61 -11.3,90.1 -0.6,16.2 -0.6,38.5 2.2,65.2 l 0.2,2.3 0.6,0.3 c 6.7,25.2 17.5,29.3 23.4,29.4 9.1,0.2 17.1,-7.8 21.1,-21 0.2,-0.6 0.2,-1.2 0.3,-12.6 0.1,-7.1 0.1,-15.7 0.1,-17.5 v -0.2 -0.5 c -0.3,-17.8 0.4,-44.1 3.4,-67.4 5,-38.7 11.3,-45.7 17.1,-48.9 15.5,-8.6 37.1,5 38.1,5.6 18.6,12 19.2,29.3 34.3,74.2 v 0 c 5.1,14.6 18.7,50.3 49.5,90.7 0,0 10.2,13.4 29.4,29.2 7.3,6.1 15.1,11.6 19.7,9.1 3.3,-1.8 4.3,-7.3 4.3,-7.6 0.5,-2.7 0.2,-5.6 -1.1,-8.3 -5,-10.8 -10.5,-21.4 -16.3,-32.6 z M 2596.1,699.4 c -0.9,0.9 -2.1,1.4 -3.4,1.4 -0.2,0 -0.4,0 -0.6,0 -6.6,-0.8 -13,-2 -19.3,-3.1 -6.1,-1.1 -12.4,-2.3 -18.8,-3 -0.9,-0.1 -2.3,-0.9 -3.6,-2.3 -2.7,-2.7 -3.1,-6.5 -3.2,-9 -0.7,-11.7 1.8,-24.8 2.4,-27.7 2.5,-13.3 3.5,-17 7.2,-19.3 2.7,-1.6 5.5,-1.7 6.7,-1.7 6.8,-0.1 11.8,4.2 14.4,6.4 16.1,13.9 18.9,32.8 20.5,43.4 0.2,0.1 1.5,11 -2.3,14.9 z"
   inkscape:connector-curvature="0" />
            <path
   sodipodi:type="inkscape:offset"
   inkscape:radius="32.23399"
   inkscape:original="M 1445.9805 322.40625 C 1416.768 322.04375 1389.0957 324.48828 1389.0957 324.48828 C 1349.8957 328.38827 1296.9022 335.19259 1233.9023 347.39258 C 1233.9023 347.39258 1217.3847 354.00431 1204.8848 371.4043 C 1168.9848 421.40425 1155 638.81445 1155 638.81445 C 1155 638.81445 1139.2852 882.38875 1170.2852 959.38867 C 1172.2852 964.48867 1176.0879 967.00977 1176.0879 967.00977 C 1200.2879 981.20976 1199.1176 939.2011 1208.5176 865.20117 C 1212.6176 827.40121 1217.6949 780.28861 1225.7949 719.88867 C 1228.6949 695.0887 1234.9145 672.51755 1240.8145 648.51758 C 1241.3145 647.51758 1242.9055 647.40547 1243.6055 648.60547 C 1250.8055 661.40546 1261.1066 679.30666 1274.3066 700.30664 C 1285.8066 718.50662 1308.8824 755.18831 1333.9824 785.98828 C 1378.8823 841.18823 1425.0146 871.29964 1469.8145 900.59961 C 1469.8145 900.59961 1551.4962 953.9828 1586.9961 940.38281 C 1588.9961 939.58281 1590.0957 938.21289 1590.0957 938.21289 C 1590.2957 937.91289 1590.484 937.5832 1590.584 937.2832 C 1597.584 922.38321 1525.0011 890.11204 1460.2012 827.41211 C 1392.0012 761.41217 1355.3004 684.08005 1338.9004 649.58008 C 1331.2004 633.4801 1325.4004 619.71913 1321.4004 609.61914 C 1321.1004 608.91914 1320.7156 608.09375 1320.5156 607.09375 C 1319.8156 604.09375 1320.5045 600.8793 1322.1094 598.2793 C 1382.8093 498.4794 1468.2902 439.49993 1511.9902 362.5 C 1512.4902 361.6 1512.8875 360.70897 1513.1875 359.70898 C 1515.8875 350.20898 1515.2129 342.89102 1512.2129 337.29102 C 1505.9629 325.94103 1475.193 322.76875 1445.9805 322.40625 z M 1372.6836 379.7207 C 1378.3362 379.92599 1383.7852 380.39531 1388.7852 381.19531 C 1393.8852 381.99531 1398.0164 385.27892 1399.8164 389.87891 C 1401.5164 394.27891 1400.6895 399.19219 1397.6895 402.99219 C 1377.2895 428.39216 1334.1858 479.98714 1302.0859 512.28711 C 1288.1859 526.08709 1273.6785 540.01057 1258.9785 553.31055 C 1256.4785 555.51055 1253.5176 556.67773 1250.5176 556.67773 C 1248.8176 556.67773 1247.1219 556.31523 1245.4219 555.61523 C 1240.5219 553.41523 1237.4023 548.48827 1237.4023 542.98828 C 1237.3023 500.78832 1237.2146 467.59526 1254.8145 419.69531 C 1260.5145 404.09532 1269.5949 394.9043 1281.7949 392.4043 C 1285.6949 391.6043 1289.8871 390.49062 1294.2871 389.39062 C 1302.3871 387.29064 1311.6062 384.98945 1322.9062 383.18945 C 1336.9313 380.86446 1355.7257 379.10485 1372.6836 379.7207 z M 2882.5801 451.39648 C 2875.0346 451.65101 2865.9785 452.67188 2855.291 453.98438 C 2835.8911 456.38437 2814.7066 459.37853 2791.8066 462.97852 C 2791.3066 463.07852 2753.9995 469.28751 2714.0996 474.1875 C 2643.2996 482.8875 2590.7941 485.48712 2586.9941 501.78711 C 2586.4941 504.08711 2586.3078 507.01836 2586.5078 512.81836 C 2586.7078 520.01835 2587.4078 548.67931 2600.5078 556.2793 C 2613.8078 564.07929 2628.2879 543.2914 2672.5879 535.19141 C 2688.6879 532.29141 2696.8102 531.09453 2703.9102 534.39453 C 2726.7101 545.29452 2721.8008 589.39811 2723.8008 657.99805 C 2723.8008 657.99805 2726.1008 739.9208 2748.3008 834.7207 C 2748.3008 834.7207 2766.1962 912.19649 2798.4961 922.39648 C 2799.3961 922.69648 2800.3094 922.79492 2801.1094 922.79492 C 2802.9094 922.79492 2804.4945 922.17852 2805.8945 920.97852 C 2808.7945 918.57852 2814.0883 914.10892 2807.4883 849.20898 C 2803.9883 814.30902 2798.2199 773.59138 2794.4199 746.69141 C 2792.5199 732.99142 2790.9094 722.08281 2790.6094 718.38281 C 2788.3094 692.58284 2786.0098 670.2117 2784.0098 650.51172 C 2784.0098 650.51172 2778.4051 591.60347 2781.7051 542.10352 C 2782.0051 538.20353 2782.7977 534.97969 2784.0977 532.17969 C 2784.0977 532.17969 2785.7066 528.92148 2788.3066 526.02148 C 2796.8066 516.82149 2818.6094 513.2168 2818.6094 513.2168 C 2836.6094 510.21681 2845.6181 508.69883 2853.918 508.29883 C 2896.518 505.99883 2910.3863 512.10351 2915.9863 503.60352 C 2919.7863 497.80352 2917.2832 488.0039 2913.2832 472.50391 C 2911.3832 465.10392 2910.4102 461.41445 2908.4102 458.81445 C 2904.5102 453.91446 2898.3645 451.82852 2889.627 451.41602 C 2887.4426 451.31289 2885.0952 451.31164 2882.5801 451.39648 z M 1534.0977 462.0918 C 1518.0977 461.8918 1507.3203 463.20078 1499.3203 466.30078 C 1489.1203 470.30078 1484.9187 480.19453 1482.2188 485.39453 C 1445.7188 555.79445 1444.8086 750.00354 1450.8086 764.10352 C 1452.6086 768.40352 1455.1953 772.21094 1455.1953 772.21094 C 1457.4952 775.51094 1459.7965 777.89883 1461.3965 779.29883 C 1461.3965 779.29883 1467.1113 784.21094 1474.1113 786.21094 C 1475.7113 786.71094 1477.5832 787.10938 1479.7832 786.60938 C 1480.9832 786.40937 1482.0934 785.89141 1483.1934 785.19141 C 1493.0934 778.89141 1495.8949 755.91246 1500.2949 712.3125 C 1502.8948 686.61253 1505.8918 657.40739 1511.5918 631.10742 C 1512.5918 626.50742 1516.4066 623.39844 1520.8066 623.39844 C 1528.1066 623.39844 1536.0184 625.01641 1544.8184 628.31641 C 1570.0184 637.6164 1583.7883 666.81567 1585.4883 715.01562 C 1587.0883 757.61559 1600.4793 855.11173 1605.7793 869.01172 C 1611.8793 885.4117 1627.5836 912.11914 1639.1836 912.11914 C 1639.9836 912.11914 1640.6883 912.01877 1641.4883 911.71875 C 1646.6883 909.91875 1649.2207 902.71481 1648.2207 868.21484 C 1647.5207 844.81486 1645.3941 813.49449 1642.9941 777.39453 L 1642.1074 763.30664 C 1641.2074 749.80665 1640.282 738.81835 1639.582 731.31836 C 1638.282 716.51837 1636.7852 702.99095 1628.2852 632.79102 C 1626.8852 621.59103 1627.2 623.61484 1627 621.71484 C 1618.9001 554.41491 1618.7883 537.21092 1606.4883 515.21094 C 1602.4883 508.01095 1598.4867 502.79141 1596.3867 500.19141 C 1590.9867 493.49142 1569.5976 462.6918 1534.0977 462.0918 z M 3302.3945 482.69336 C 3270.9945 485.19336 3235.2965 486.71836 3200.8965 488.31836 C 3165.7966 489.81836 3129.6164 491.39023 3097.3164 493.99023 C 3093.0164 494.29023 3083.2898 496.31992 3081.5898 501.91992 C 3080.4898 505.51991 3083.0824 509.41407 3087.4824 514.41406 C 3095.3824 523.41405 3103.5911 532.71524 3119.291 538.11523 C 3129.191 541.51523 3143.6224 540.51367 3172.3223 538.51367 C 3186.4223 537.51367 3200.6188 537.90938 3214.7188 536.60938 C 3225.3187 535.60938 3234.2055 534.41367 3236.6055 538.51367 C 3239.1055 542.81366 3232.8113 550.50195 3231.1113 553.00195 C 3210.8114 583.80191 3189.819 613.59222 3169.6191 642.49219 C 3149.7191 670.89216 3129.1016 700.32151 3109.1016 730.52148 L 3108.8809 730.91992 C 3104.5809 739.21992 3105.7805 749.68712 3111.9805 758.78711 C 3117.5805 767.08711 3126.0027 772.28984 3132.8027 771.58984 C 3179.4026 765.98985 3234.8872 755.81405 3283.7871 746.91406 C 3294.9871 744.91407 3305.9824 742.92148 3316.4824 741.02148 L 3317.0137 740.88867 L 3317.4121 740.71094 C 3340.3121 730.81095 3367.9105 700.60976 3363.3105 685.50977 C 3361.7105 680.70978 3357.0972 675.68906 3343.1973 678.28906 C 3306.5973 684.68906 3276.4902 690.59648 3244.4902 696.89648 L 3236.2949 698.49023 C 3231.0949 699.49023 3226.0874 700.70234 3221.1875 701.90234 C 3209.5875 704.70233 3198.7176 707.29609 3187.5176 706.99609 C 3188.6176 702.8961 3193.5172 692.1906 3211.6172 663.89062 C 3226.7172 640.19065 3246.6008 611.21481 3265.8008 583.21484 C 3284.1008 556.41486 3301.4048 531.18397 3312.8047 513.08398 C 3316.8047 506.78399 3316.5941 495.30819 3312.4941 488.4082 C 3310.0941 484.4082 3306.4945 482.29336 3302.3945 482.69336 z M 2383.5957 503.58594 C 2379.3049 503.88862 2374.9133 505.05352 2370.4883 507.10352 C 2342.1883 520.2035 2327.6855 548.9926 2319.1855 569.39258 C 2317.4855 573.59257 2315.1824 576.10469 2312.9824 576.30469 C 2310.7824 576.40469 2308.1945 574.1793 2305.8945 570.2793 C 2295.5945 552.47932 2284.2859 539.11365 2270.5859 524.51367 C 2254.2859 507.21369 2225.9953 500.98985 2208.6953 511.08984 C 2204.4953 513.48984 2193.9906 522.69417 2185.3906 554.99414 C 2176.5906 588.4941 2172.9821 635.30553 2174.582 694.10547 C 2176.382 756.70541 2190.7801 799.98518 2202.5801 825.28516 C 2216.2801 854.68513 2232.9992 873.61914 2245.1992 873.61914 C 2252.8992 873.61914 2258.1813 871.49531 2261.2812 867.19531 C 2267.9812 857.89532 2262.2949 840.99412 2253.7949 815.49414 C 2239.6949 773.69418 2218.3965 710.40695 2235.8965 634.20703 C 2236.7965 630.50703 2240.1141 618.08788 2247.4141 616.08789 C 2253.5141 614.38789 2268.3829 619.1938 2299.3828 670.09375 C 2303.2828 676.39374 2310.0141 680.11758 2317.4141 680.01758 C 2324.8141 679.91758 2331.3121 675.88476 2334.9121 669.38477 L 2335.3105 668.58594 C 2348.8105 644.18596 2369.209 607.28359 2381.209 610.68359 C 2388.109 612.58359 2391.5164 624.48047 2392.8164 628.98047 C 2405.9164 674.48042 2398.4059 748.51373 2392.9062 802.51367 C 2387.9062 851.61363 2386.7793 865.90117 2394.2793 868.70117 C 2400.3793 871.00117 2406.2017 870.41758 2411.6016 867.01758 C 2436.3016 851.41759 2446.5102 772.22179 2453.9102 688.92188 C 2454.2102 684.92188 2460.682 589.09602 2417.582 523.49609 C 2411.482 514.1961 2404.1332 508.04219 2396.0957 505.24219 L 2396.0938 505.24219 C 2392.075 503.84219 2387.8865 503.28326 2383.5957 503.58594 z M 1905.0879 508.78711 C 1900.7879 508.68711 1890.8973 509.59023 1888.6973 514.99023 C 1887.2973 518.39022 1889.4148 522.70353 1893.2148 528.10352 C 1900.1148 537.90351 1907.3224 547.98399 1922.3223 555.08398 C 1931.8223 559.58398 1946.2102 560.10937 1974.9102 561.10938 C 1989.0102 561.60938 2003.1066 563.47773 2017.3066 563.67773 C 2028.0066 563.77773 2036.893 563.58677 2038.793 567.88672 C 2040.793 572.48671 2033.7949 579.40898 2031.7949 581.70898 C 2008.3949 610.10895 1984.4206 637.60119 1961.2207 664.20117 C 1938.4207 690.30114 1914.809 717.41839 1891.709 745.31836 L 1891.3984 745.7168 C 1886.2984 753.51679 1886.2879 764.01681 1891.4883 773.7168 C 1896.1883 782.61679 1903.9926 788.60352 1910.8926 788.60352 C 1957.8925 787.90352 2014.0915 783.7078 2063.6914 780.00781 C 2075.0914 779.20781 2086.1871 778.31523 2096.7871 777.61523 L 2097.3184 777.61523 L 2097.8047 777.48242 C 2121.6047 770.08243 2152.2852 742.9199 2149.2852 727.41992 C 2148.1852 722.61992 2144.2016 717.10508 2130.1016 718.20508 C 2093.1016 720.70508 2062.4215 723.37969 2030.0215 726.17969 L 2021.6934 726.88867 C 2016.3934 727.38867 2011.3203 728.00508 2006.3203 728.70508 C 1994.5203 730.20508 1983.2969 731.71094 1972.2969 730.21094 C 1973.8969 726.31095 1979.7833 716.09645 2000.7832 689.89648 C 2018.2832 667.9965 2041.1051 641.17889 2063.2051 615.37891 C 2084.2051 590.67894 2104.0867 567.39725 2117.3867 550.69727 C 2121.9867 544.89727 2123.0914 533.40938 2119.6914 526.10938 C 2117.6914 521.80939 2114.3988 519.38711 2110.2988 519.28711 C 2078.7988 518.38711 2043.2129 516.20351 2008.7129 514.10352 C 1973.7129 511.90352 1937.3879 509.68711 1905.0879 508.78711 z M 2962.9121 523.0625 C 2960.3392 523.00493 2957.8285 523.09336 2955.416 523.31836 C 2943.716 524.41836 2935.1805 528.58555 2931.9805 530.18555 C 2931.1805 530.58555 2930.5086 530.98086 2929.8086 531.38086 C 2925.7086 533.98086 2915.182 541.31954 2907.082 554.01953 C 2882.3821 592.91949 2853.8821 853.11919 2875.582 901.61914 C 2878.182 907.41914 2881.7043 910.71016 2885.9043 911.41016 C 2894.6043 912.81016 2901.6176 909.11914 2902.5176 908.61914 C 2903.8176 907.91914 2912.8191 902.38006 2916.1191 885.58008 C 2920.9191 860.88011 2924.0937 820.70348 2927.5938 778.10352 C 2929.7937 750.50355 2932.1043 721.88436 2934.9043 696.98438 C 2935.0043 696.38437 2934.9799 695.79023 2935.0801 694.99023 C 2935.3801 691.19024 2935.8012 686.08594 2939.2012 682.58594 C 2945.6012 676.08595 2963.2039 674.50821 2976.5039 682.4082 C 2983.1039 686.30819 2986.6992 691.30664 2988.1992 693.30664 C 3007.0992 719.70662 3012.3008 750.99023 3012.3008 750.99023 C 3032.4008 847.69013 3032.4231 847.69655 3050.623 922.39648 C 3050.723 922.89648 3061.8855 967.69453 3083.1855 967.89453 L 3083.3184 967.89453 C 3087.2184 967.89453 3090.6094 966.11289 3093.1094 962.71289 C 3099.8094 953.7129 3100.9852 931.3863 3096.7852 894.48633 C 3093.4852 864.88636 3086.6062 825.98824 3076.4062 778.98828 C 3057.7063 692.98837 3033.4004 604.49411 3022.4004 568.99414 C 3022.3004 568.69414 3022.202 568.18828 3022.002 567.48828 C 3021.202 563.78829 3019.3844 556.01679 3013.9844 548.2168 C 3001.997 530.97931 2980.9228 523.46546 2962.9121 523.0625 z M 1533.4922 526.56055 C 1535.429 526.58127 1537.3535 527.06367 1539.1035 528.01367 C 1551.3035 534.41366 1561.6945 543.0211 1569.8945 553.62109 C 1575.0945 560.32109 1579.4094 567.69571 1582.6094 575.5957 C 1584.3094 579.4957 1583.5809 583.89102 1580.8809 587.29102 C 1578.6809 590.09102 1575.3887 591.69844 1571.8887 591.89844 C 1570.9887 591.89844 1570.0855 591.92071 1569.1855 591.7207 L 1526.0801 584.58789 C 1519.5801 583.48789 1515.1113 577.52108 1516.1113 571.12109 L 1521.2949 536.78711 C 1521.8949 532.98712 1524.3066 529.68086 1527.8066 527.88086 C 1529.6066 526.98086 1531.5554 526.53982 1533.4922 526.56055 z M 2953.502 575.0332 C 2963.4204 574.83442 2975.0074 586.41563 2975.7949 587.20312 C 2975.7949 587.20312 2986.4934 598.30861 2990.1934 619.80859 C 2990.5934 622.10859 2990.7023 624.48047 2990.9023 625.48047 C 2991.7023 631.98046 2992.6785 639.09962 2984.4785 643.59961 C 2981.2785 645.29961 2976.2113 646.08008 2970.6113 646.08008 C 2959.3114 646.08008 2945.9055 643.08203 2941.1055 639.08203 C 2936.5055 635.28204 2936.1043 630.52068 2938.4043 609.2207 C 2940.6043 589.62072 2942.2891 582.02109 2946.2891 578.12109 C 2947.1891 577.22109 2948.0906 576.50625 2949.3906 575.90625 C 2950.7031 575.33125 2952.085 575.0616 2953.502 575.0332 z M 2579.207 580.25391 C 2575.1665 580.05022 2571.3902 580.31602 2567.9902 580.82227 L 2567.9883 580.82227 C 2561.1883 581.83477 2555.9156 583.79844 2553.0156 584.89844 C 2550.1156 585.99844 2537.4918 591.08048 2525.5918 604.48047 C 2515.6918 615.58046 2509.8812 628.22191 2500.7812 667.92188 C 2494.9812 693.02185 2491.6934 712.61876 2490.1934 721.21875 C 2483.5934 760.71871 2479.9965 782.18519 2478.8965 811.28516 C 2478.2965 827.48514 2478.3113 849.79807 2481.1113 876.49805 L 2481.2891 878.80273 L 2481.9082 879.11328 C 2488.6082 904.31326 2499.4008 908.38633 2505.3008 908.48633 C 2514.4008 908.68633 2522.3887 900.68632 2526.3887 887.48633 C 2526.5887 886.88634 2526.5992 886.30429 2526.6992 874.9043 C 2526.7992 867.80431 2526.7871 859.2043 2526.7871 857.4043 L 2526.7871 857.18359 L 2526.7871 856.69531 C 2526.4871 838.89533 2527.1992 812.61053 2530.1992 789.31055 C 2535.1992 750.61059 2541.5008 743.60039 2547.3008 740.40039 C 2562.8008 731.8004 2584.4004 745.38242 2585.4004 745.98242 C 2604.0003 757.98241 2604.5914 775.2895 2619.6914 820.18945 C 2624.7914 834.78944 2638.4207 870.47699 2669.2207 910.87695 C 2669.2207 910.87695 2679.3938 924.3172 2698.5938 940.11719 C 2705.8938 946.21718 2713.7086 951.69922 2718.3086 949.19922 C 2721.6086 947.39922 2722.6055 941.88008 2722.6055 941.58008 C 2723.1055 938.88008 2722.798 935.99492 2721.498 933.29492 C 2716.498 922.49493 2710.9953 911.88748 2705.1953 900.6875 C 2693.5954 878.08752 2681.591 854.7867 2671.791 828.38672 C 2653.8911 779.98677 2646.4047 733.38902 2639.8047 692.28906 C 2635.2047 663.28909 2630.7793 635.90428 2623.2793 610.9043 C 2621.7793 606.00431 2619.191 601.47891 2615.791 597.87891 C 2606.291 587.97892 2595.702 583.60586 2592.002 582.50586 C 2587.552 581.13086 2583.2476 580.45759 2579.207 580.25391 z M 3344.5254 586.53906 C 3341.1254 586.35157 3337.7488 586.90742 3335.7988 589.10742 C 3333.3988 591.90742 3333.9863 596.58673 3335.8867 602.88672 C 3339.2867 614.28671 3342.8926 626.30704 3354.8926 637.70703 C 3362.4926 645.00702 3376.0181 649.98009 3402.918 660.08008 C 3416.118 665.08008 3428.9027 671.28438 3442.3027 675.98438 C 3452.4027 679.48438 3460.9965 682.08281 3461.3965 686.88281 C 3461.7965 691.8828 3453.0102 696.18125 3450.4102 697.78125 C 3419.1102 717.28123 3387.5973 735.80354 3357.1973 753.60352 C 3327.2973 771.10351 3296.2902 789.30627 3265.4902 808.40625 L 3265.0918 808.7168 C 3257.6918 814.51679 3254.4203 824.39689 3256.3203 835.29688 C 3258.0203 845.19687 3263.4199 853.2879 3269.9199 855.58789 C 3314.6198 869.88788 3369.2923 883.79221 3417.4922 895.99219 C 3428.4922 898.79219 3439.3013 901.4875 3449.7012 904.1875 L 3450.1875 904.32031 L 3450.7207 904.32031 C 3475.7207 904.82031 3513.3902 888.92068 3515.4902 873.2207 C 3516.0902 868.52071 3513.9949 862.01172 3500.2949 858.51172 C 3464.3949 849.11173 3434.4852 841.87929 3402.7852 834.2793 L 3394.7207 832.28516 C 3389.6208 831.08516 3384.4805 830.0957 3379.4805 829.0957 C 3367.7805 826.7957 3356.7852 824.60312 3346.7852 819.70312 C 3349.4852 816.50314 3358.4133 808.79568 3386.6133 790.5957 C 3410.2132 775.39572 3440.304 757.28123 3469.5039 739.78125 C 3497.3039 723.08126 3523.5083 707.31132 3541.4082 695.61133 C 3547.6082 691.61133 3552.3199 681.01757 3551.4199 673.01758 C 3550.9199 668.31758 3548.4977 664.98008 3544.5977 663.58008 C 3514.9978 652.78009 3481.9116 639.41015 3450.0117 626.41016 C 3417.5117 613.21018 3383.7866 599.49843 3353.3867 588.39844 C 3351.3367 587.64844 3347.9254 586.72656 3344.5254 586.53906 z M 1700.7207 605.58789 C 1696.4207 605.48789 1686.4832 606.39102 1684.2832 611.79102 C 1682.8832 615.19101 1685.0027 619.50431 1688.8027 624.9043 C 1695.7027 634.70429 1702.9102 644.78478 1717.9102 651.88477 C 1727.4102 656.38477 1741.7962 656.91016 1770.4961 657.91016 C 1784.5961 658.41016 1798.6945 660.27852 1812.8945 660.47852 C 1823.5945 660.57852 1832.4809 660.38754 1834.3809 664.6875 C 1836.3809 669.28749 1829.3809 676.20977 1827.3809 678.50977 C 1803.981 706.90974 1780.0066 734.40197 1756.8066 761.00195 C 1734.0066 787.10192 1710.3968 814.22111 1687.2969 842.12109 L 1686.9863 842.51953 C 1681.8863 850.31952 1681.9192 860.81759 1687.1191 870.51758 C 1691.8191 879.41757 1699.5805 885.4043 1706.4805 885.4043 C 1753.4805 884.7043 1809.6793 880.50858 1859.2793 876.80859 C 1870.6792 876.00859 1881.8181 875.11602 1892.418 874.41602 L 1892.9043 874.41602 L 1893.3926 874.2832 C 1917.1926 866.88321 1947.916 839.72265 1944.916 824.22266 C 1943.816 819.42267 1939.7895 813.90781 1925.6895 815.00781 C 1888.6896 817.50781 1858.0094 820.18047 1825.6094 822.98047 L 1817.2812 823.68945 C 1811.9813 824.18945 1806.9082 824.80586 1801.9082 825.50586 C 1790.1082 827.00586 1778.8828 828.51367 1767.8828 827.01367 C 1769.4828 823.11368 1775.4141 812.89724 1796.4141 786.69727 C 1813.9141 764.79729 1836.6931 737.97967 1858.793 712.17969 C 1879.793 687.47972 1899.7195 664.19803 1913.0195 647.49805 C 1917.6195 641.69805 1918.6773 630.21016 1915.2773 622.91016 C 1913.2773 618.61017 1909.9866 616.18789 1905.8867 616.08789 C 1874.3867 615.18789 1838.8007 613.0043 1804.3008 610.9043 C 1769.3008 608.70431 1733.0206 606.48789 1700.7207 605.58789 z M 2563.5137 634.69531 C 2570.3136 634.59531 2575.3121 638.91915 2577.9121 641.11914 C 2594.0121 655.01913 2596.7809 673.8922 2598.3809 684.49219 C 2598.5809 684.59219 2599.9211 695.52187 2596.1211 699.42188 C 2595.2211 700.32187 2594.009 700.79492 2592.709 700.79492 L 2592.0898 700.79492 C 2585.4898 699.99492 2579.1184 698.79336 2572.8184 697.69336 C 2566.7184 696.59337 2560.3902 695.38164 2553.9902 694.68164 C 2553.0902 694.58164 2551.7004 693.82187 2550.4004 692.42188 C 2547.7004 689.72187 2547.3109 685.8828 2547.2109 683.38281 C 2546.5109 671.68282 2549.0035 658.59531 2549.6035 655.69531 C 2552.1035 642.39532 2553.0814 638.67891 2556.7812 636.37891 C 2559.4812 634.77891 2562.3137 634.69531 2563.5137 634.69531 z "
   xlink:href="#path7552"
   id="path7573"
   inkscape:href="#path7552"
   d="m 1446.3809,290.17383 c -31.2629,-0.38795 -60.1211,2.20508 -60.1211,2.20508 a 32.237213,32.237213 0 0 0 -0.3555,0.0332 c -40.0275,3.98232 -94.0148,10.91785 -158.1309,23.33398 a 32.237213,32.237213 0 0 0 -5.8496,1.72071 c 0,0 -25.1258,9.94534 -43.2187,35.13086 a 32.237213,32.237213 0 0 0 -0,0.006 c -14.8515,20.68446 -21.4138,45.32829 -28.1563,74.39257 -6.7425,29.06428 -11.9482,61.71799 -16.0234,92.65235 -8.1505,61.86872 -11.6895,117.09765 -11.6895,117.09765 -7e-4,0.0121 -3.9942,61.76046 -4.0488,133.45508 -0.055,71.61398 0.9979,149.85585 21.5273,201.03321 5.7654,14.61526 17.9668,22.64062 17.9668,22.64062 a 32.237213,32.237213 0 0 0 1.4981,0.93555 c 5.9677,3.50172 13.3858,6.87355 23.3476,7.15825 9.9619,0.2846 21.5684,-4.28484 28.4883,-10.51568 13.8399,-12.46167 15.2718,-24.06902 17.7403,-35.42578 4.9369,-22.71352 6.5597,-50.68603 11.1425,-86.76367 a 32.237213,32.237213 0 0 0 0.07,-0.58594 c 3.8856,-35.82356 8.7921,-80.51184 16.1152,-136.00585 12.7568,19.91521 31.4331,48.05144 52.2969,73.65624 48.099,59.13303 98.4122,91.95911 143.1953,121.24805 a 32.237213,32.237213 0 0 0 0.01,0.006 c 0,0 21.9545,14.41693 49.2383,27.19922 13.6418,6.39115 28.7366,12.5484 44.6386,16.43555 15.902,3.88715 33.161,6.66511 52.4707,-0.73242 a 32.237213,32.237213 0 0 0 0.4395,-0.17383 c 9.9988,-3.99953 16.2656,-11.91993 16.2656,-11.91993 a 32.237213,32.237213 0 0 0 1.6836,-2.29687 c 0.8667,-1.30006 2.0541,-3.25678 3.3633,-6.51367 1.1569,-2.7993 1.9425,-5.652 2.3262,-8.49805 4.5257,1.92509 9.9026,3.27149 16.5781,3.27149 3.4025,0 8.8789,-0.78702 13.2402,-2.35352 6.7548,-2.46038 15.1248,-8.71848 19.4844,-15.43164 4.1105,-6.32971 5.6219,-11.96274 6.6523,-17.23438 7.3233,5.02248 16.3427,8.30469 27.92,8.30469 a 32.237213,32.237213 0 0 0 0.4804,-0.004 c 48.4907,-0.72221 105.0084,-4.97437 154.5743,-8.67188 l 0.1425,-0.01 c 11.5531,-0.81168 22.6259,-1.69685 32.8653,-2.37304 l -1.4785,0.0488 a 32.237213,32.237213 0 0 0 8.3007,-1.10938 l 0.4883,-0.13281 a 32.237213,32.237213 0 0 0 1.1094,-0.32227 c 18.8216,-5.85209 34.6564,-16.46113 48.3047,-29.27539 6.8241,-6.40713 12.9824,-13.32844 18.039,-21.97851 5.0417,-8.62444 10.2499,-19.97341 7.2735,-35.57813 30.2209,-1.71558 60.8966,-3.94646 89.3672,-6.07031 l 0.1425,-0.01 c 11.5584,-0.81207 22.5887,-1.69724 32.8223,-2.37304 l -1.4199,0.0469 a 32.237213,32.237213 0 0 0 8.3183,-1.11523 l 0.4864,-0.13282 a 32.237213,32.237213 0 0 0 1.0781,-0.31445 c 17.8421,-5.54753 32.9222,-15.44638 46.0664,-27.36914 5.8367,24.13107 13.1382,43.46258 19.9258,58.01563 7.8502,16.84482 16.5928,31.19232 26.9121,42.89062 10.3212,11.70056 22.1445,24.05274 44.9199,24.05274 13.6272,0 31.9171,-5.50253 42.2305,-19.8086 a 32.237213,32.237213 0 0 0 0.01,-0.008 c 11.2915,-15.67315 9.7943,-32.53326 7.459,-44.69531 -2.3353,-12.16205 -6.2758,-23.30994 -10.5195,-36.04102 a 32.237213,32.237213 0 0 0 -0.037,-0.10937 c -11.8592,-35.1569 -26.6055,-79.8153 -21.8594,-132.91016 2.9011,4.28672 5.998,9.03514 9.375,14.58008 a 32.237213,32.237213 0 0 0 0.1211,0.19922 c 9.645,15.58031 27.4,25.43716 45.875,25.1875 18.853,-0.25477 36.4325,-11.30801 45.2598,-27.2461 a 32.237213,32.237213 0 0 0 0.6484,-1.23047 l 0.035,-0.0703 c 0.9447,-1.70669 2.0324,-3.57082 3.0254,-5.34961 1.361,36.49156 -2.1601,83.3851 -5.9805,120.89649 -2.5072,24.62066 -4.2071,40.38527 -4.166,53.82031 0.021,6.71752 0.092,13.02294 3.0859,21.61719 2.9905,8.58573 12.691,20.25365 23.2168,24.19922 14.1129,5.29343 32.9893,3.478 45.8027,-4.58985 a 32.237213,32.237213 0 0 0 0.037,-0.0234 c 9.0561,-5.71966 15.0457,-12.72257 19.748,-20.25 0.1837,1.98376 0.2772,3.80655 0.4902,5.8379 l -0.08,-0.88282 0.1777,2.30469 a 32.237213,32.237213 0 0 0 3.3418,11.61133 c 4.277,13.68365 10.1801,24.85817 18.8691,33.35937 9.8403,9.62751 23.3153,14.2732 33.3418,14.45703 14.1537,0.27415 27.3548,-6.4354 35.8164,-14.875 8.3116,-8.28987 13.2829,-18.03488 16.4942,-28.36523 1.0077,-3.15852 1.7393,-9.23778 1.7929,-11.4375 0.054,-2.20306 0.075,-5.14414 0.1231,-10.67383 0.1057,-7.5031 0.092,-16.29758 0.092,-17.95312 v -0.22071 -0.48828 a 32.237213,32.237213 0 0 0 -0.01,-0.54297 c -0.2764,-16.4026 0.4634,-41.81796 3.1524,-62.71093 l 0,-0.0117 c 1e-4,-6.2e-4 -10e-5,-0.001 0,-0.002 1.2546,-9.70668 2.5759,-16.44119 3.7324,-21.33593 0.2128,0.10232 0.5108,0.19621 0.7012,0.29297 1.2614,0.64086 -0.1059,-0.15209 2.2012,1.23242 0.012,0.007 -5e-4,-0.001 0.012,0.006 2.3049,1.39905 2.0997,1.20134 4.9219,8.60547 3.1889,8.36618 7.492,24.72075 15.4004,48.23632 a 32.237213,32.237213 0 0 0 0.1211,0.35547 c 5.5992,16.02923 20.7395,55.51435 54.2597,99.50977 0,0 0.01,0.0117 0.01,0.0117 0.014,0.0182 12.7536,16.67786 34.4922,34.58593 4.3241,3.6133 9.1108,7.60736 16.3691,11.44727 7.3075,3.86587 21.5963,10.7738 39.3106,1.14648 a 32.237213,32.237213 0 0 0 0.043,-0.0234 c 12.6106,-6.8785 15.7683,-15.46441 17.8477,-20.625 1.0397,-2.5803 1.6536,-4.69245 2.1016,-6.50782 0.2239,-0.90768 0.4006,-1.72134 0.5644,-2.61132 0.1484,-0.80656 0.4734,1.08495 0.5391,-5.02735 0.4198,-5.44474 -0.02,-11.0794 -1.627,-16.55468 8.1201,10.7722 18.639,21.489 35.3106,26.84765 5.0139,1.64477 9.2282,2.00977 12.6289,2.00977 9.047,0 19.0976,-4.01665 25.498,-9.39063 1.003,-0.86843 8.0461,-7.81975 11.0567,-14.47461 3.0627,-6.77031 4.0723,-12.85871 4.6933,-19.73242 0.155,-1.71546 0.1868,-3.77916 0.2813,-5.6582 1.02,3.02017 2.1809,6.01796 3.5195,9.00976 a 32.237213,32.237213 0 0 0 0.01,0.0215 c 5.1833,11.56272 16.9597,25.48742 34.4375,28.40039 a 32.237213,32.237213 0 0 0 0.1777,0.0293 c 19.8879,3.20035 32.7832,-3.88882 37.1348,-6.30665 9.1247,-4.95761 24.6723,-18.87722 29.83,-45.13476 a 32.237213,32.237213 0 0 0 0.014,-0.0644 c 5.541,-28.51275 8.4621,-68.44949 11.9571,-110.98633 a 32.237213,32.237213 0 0 0 0.01,-0.0781 c 1.7252,-21.64522 3.5749,-43.2192 5.5761,-63.4082 10.9671,18.01883 15.2012,39.02148 15.2012,39.02148 a 32.237213,32.237213 0 0 0 0.2383,1.27344 c 20.1009,96.70427 20.3639,97.7821 38.5625,172.47656 l -0.2891,-1.30859 c 1.1221,5.6105 0.4143,1.8236 0.5586,2.37891 0.1444,0.5553 0.3297,1.24637 0.5625,2.07812 0.4657,1.6635 1.1179,3.87851 1.9746,6.50586 1.7134,5.25471 4.2025,12.12969 7.8321,19.625 3.6295,7.49531 8.1874,15.6795 15.8652,23.72266 7.6778,8.04315 20.4781,16.94182 37.0742,17.0977 a 32.237213,32.237213 0 0 0 0.3027,0 h 0.1329 c 13.6867,0 28.1341,-8.00856 35.705,-18.2539 10.3743,-13.98299 11.4375,-26.86947 12.1993,-41.08789 0.7628,-14.23813 -0.1887,-30.41462 -2.4063,-49.9082 -2.7598,-24.74196 -7.8102,-54.80491 -14.8516,-89.66602 6.3594,2.24056 13.5934,3.32107 22.1387,2.44141 a 32.237213,32.237213 0 0 0 0.5449,-0.0606 c 32.911,-3.95497 68.8819,-10.04387 104.2813,-16.31641 -14.4067,14.09791 -19.5902,34.98959 -16.3692,53.52344 3.1367,18.21791 11.0095,36.82577 34.6075,45.17578 a 32.237213,32.237213 0 0 0 0.9297,0.3125 c 46.1894,14.77651 101.2576,28.7444 149.4843,40.95117 11.0164,2.80404 21.6989,5.46884 31.8223,8.09571 l 0.291,0.0801 a 32.237213,32.237213 0 0 0 8.4317,1.13086 c 19.6335,0.38329 38.0112,-4.60624 55.0078,-12.4043 8.5057,-3.90245 16.546,-8.50818 24.0918,-15.11133 7.5458,-6.60315 16.1038,-15.76907 18.2129,-31.53711 a 32.237213,32.237213 0 0 0 0.025,-0.19141 c 1.1336,-8.87941 -1.1873,-22.38957 -9.2226,-32.25 -8.0353,-9.86042 -18.8576,-14.93286 -29.9688,-17.77148 -31.3423,-8.20472 -58.181,-14.74787 -85.4199,-21.30273 19.5801,-12.20515 41.1436,-25.31766 63.2207,-38.54883 a 32.237213,32.237213 0 0 0 0.029,-0.0176 c 27.7514,-16.67079 53.946,-32.41175 72.793,-44.72461 10.8568,-7.00909 15.8588,-15.26746 19.6445,-23.80078 3.7763,-8.51192 6.2131,-17.64292 4.9141,-29.37305 -1.528,-13.97521 -12.7621,-30.81336 -27.9668,-36.27148 l 0.1582,0.0566 c -28.8187,-10.51496 -61.6315,-23.76304 -93.4707,-36.73828 a 32.237213,32.237213 0 0 0 -0.035,-0.0156 c -32.4865,-13.1945 -66.4657,-27.0202 -97.6797,-38.41797 -4.8818,-1.78602 -10.1436,-3.33135 -18.1601,-3.77343 -6.2254,-0.3433 -16.0648,-0.45728 -25.9375,5.90625 7.3139,-10.87594 14.1515,-21.16686 19.666,-29.91993 6.8718,-10.83383 8.023,-20.51322 7.8887,-29.83398 -0.1345,-9.32713 -1.7779,-18.57632 -7.7129,-28.56445 a 32.237213,32.237213 0 0 0 -0.07,-0.11719 c -7.1369,-11.89478 -24.0283,-22.85609 -40.8711,-21.21289 l 0.5722,-0.0508 c -30.507,2.4289 -65.9532,3.95467 -100.4375,5.55859 -34.9804,1.49493 -71.3079,3.06623 -104.3789,5.7207 -5.4834,0.38525 -10.8214,1.18821 -18.2871,4.10938 -7.4846,2.92859 -20.4698,8.48866 -25.9746,26.57812 -3.5538,11.66584 -0.2366,23.50714 3.0918,29.93555 3.3215,6.41513 6.5468,9.96392 9.4082,13.21484 7.9394,9.04491 22.3515,24.93922 45.5488,32.91797 a 32.237213,32.237213 0 0 0 0.014,0.006 c 20.8406,7.15738 37.0392,4.06858 65.7422,2.06836 a 32.237213,32.237213 0 0 0 0.041,-0.004 c 1.7435,-0.12365 3.9111,-0.12941 5.7578,-0.20899 -12.3993,18.05953 -24.8562,35.96241 -37.1621,53.56836 -17.0304,24.30472 -34.6789,49.69427 -52.1504,75.68359 -14.6613,-59.83248 -29.4249,-112.95715 -37.7148,-139.75976 -0.017,-0.0792 -0.052,-0.21759 -0.07,-0.30078 0.4283,1.29201 0.2655,0.7799 -0.1485,-0.62305 -1.2087,-5.36243 -4.2369,-17.03452 -12.6289,-29.15625 a 32.237213,32.237213 0 0 0 -0.037,-0.0566 c -19.5909,-28.17112 -50.4095,-38.38575 -76.8164,-38.97656 -3.7798,-0.0846 -7.5171,0.0442 -11.2109,0.38867 a 32.237213,32.237213 0 0 0 -0.023,0.002 c -0.9051,0.0851 -1.6478,0.30274 -2.5293,0.41211 -0.109,-1.35965 -0.1805,-2.81227 -0.3339,-4.01758 -1.0776,-8.46513 -3.0307,-15.38283 -5.0313,-23.13281 l -0.01,-0.0391 c -1.9102,-7.45568 -2.6437,-15.03017 -10.5351,-25.28906 a 32.237213,32.237213 0 0 0 -0.3281,-0.41993 c -11.3995,-14.32236 -29.345,-18.90116 -42.4844,-19.52148 -3.2588,-0.15385 -6.4512,-0.14509 -9.6524,-0.0371 -9.5794,0.32314 -19.2658,1.47405 -30.1328,2.80859 a 32.237213,32.237213 0 0 0 -0.027,0.004 c -19.8042,2.45001 -41.3291,5.49283 -64.5332,9.14063 a 32.237213,32.237213 0 0 0 -1.3164,0.23632 c 3.1407,-0.62815 0.7286,-0.13611 0.4648,-0.0918 -0.2637,0.0443 -0.685,0.11287 -1.2324,0.20312 -1.0949,0.1805 -2.7074,0.44402 -4.7598,0.77344 -4.1048,0.65884 -9.9716,1.58358 -17.0547,2.65625 -14.166,2.14533 -33.2109,4.88388 -52.7324,7.28125 a 32.237213,32.237213 0 0 0 -0,0 c -34.8284,4.27976 -65.4738,7.01739 -90.0899,11.15625 -12.308,2.06943 -23.024,4.25855 -33.7304,8.61719 -10.7065,4.35863 -26.1127,12.62679 -30.7461,32.50195 a 32.237213,32.237213 0 0 0 -0.1055,0.4707 c -1.3484,6.20241 -1.4357,12.07808 -1.2031,18.90039 0.096,3.52946 0.2392,14.4667 2.7929,26.9961 0.5532,2.71419 1.2071,5.77559 1.9903,8.89648 -8.3267,1.64444 -14.8151,4.01189 -17.4922,5.02735 -4.6768,1.77396 -23.3475,9.47433 -40.0703,28.29296 -7.098,7.96463 -12.8928,17.45537 -18.1387,30.32618 -4.9011,-33.27803 -15.7353,-72.39014 -38.8496,-107.57422 -9.0345,-13.7692 -21.7019,-25.38479 -37.8262,-31.00196 a 32.237213,32.237213 0 0 0 -0,0 c -8.0719,-2.81168 -16.8297,-3.97333 -25.3672,-3.37109 -8.5386,0.60233 -16.8031,2.9104 -24.3808,6.41992 -21.9877,10.17802 -37.0092,25.82792 -47.7911,41.61524 -4.8999,-5.83425 -9.8951,-11.50084 -15.0644,-17.00977 a 32.237213,32.237213 0 0 0 -0.045,-0.0488 c -26.378,-27.9962 -65.9834,-39.83003 -101.4336,-19.24414 -14.8862,8.54777 -28.5039,26.47778 -38.3711,63.53711 a 32.237213,32.237213 0 0 0 -0.027,0.10352 c -9.6306,36.66223 -13.0058,83.1712 -11.9082,139.73047 -4.908,-0.6754 -9.8447,-0.84266 -14.6836,-0.4668 -32.2932,2.18504 -59.8018,4.51554 -87.623,6.91406 14.6787,-17.80934 30.9768,-37.12674 47.6855,-56.63281 a 32.237213,32.237213 0 0 0 0.078,-0.0918 c 20.9714,-24.66633 40.8806,-47.95328 54.8379,-65.47851 a 32.237213,32.237213 0 0 0 0.041,-0.0527 c 7.9577,-10.03369 10.1098,-19.43348 10.9883,-28.72851 0.878,-9.2904 0.2766,-18.76144 -4.7129,-29.48243 -5.7531,-12.36909 -21.47,-25.054 -37.834,-25.45312 l 0.1348,0.004 c -30.6864,-0.87676 -65.9935,-3.03337 -100.4844,-5.13282 l -0.062,-0.004 c -35.0221,-2.20132 -71.6048,-4.44153 -104.6856,-5.36328 a 32.237213,32.237213 0 0 0 -0.1484,-0.004 c -4.9791,-0.11579 -10.3982,0.0514 -18.1465,2.14648 -7.741,2.09313 -21.5854,6.36669 -28.8223,24.07422 -4.6702,11.40636 -2.5137,22.84946 0.012,29.48242 2.5303,6.6458 5.3697,10.68984 7.9726,14.38868 a 32.237213,32.237213 0 0 0 0,0.006 c 6.9555,9.87879 19.5016,26.92401 41.3379,37.3789 -0.5102,-0.0361 -1.0117,-0.1633 -1.5234,-0.17578 l 0.1347,0.004 c -30.6863,-0.87676 -65.9935,-3.03336 -100.4843,-5.13281 l -0.062,-0.004 c -35.0203,-2.2012 -71.5591,-4.4415 -104.6407,-5.36328 a 32.237213,32.237213 0 0 0 -0.1484,-0.004 c -4.9819,-0.11586 -10.3967,0.0517 -18.1426,2.13867 -7.1064,1.91471 -19.324,5.7565 -26.9101,20.11914 -2.303,-20.08869 -4.1707,-36.65835 -6.3028,-49.44726 -2.9022,-17.40848 -7.6099,-32.58037 -15.4746,-46.65821 -5.2115,-9.37194 -10.4093,-16.15051 -13.1777,-19.57812 -1.2565,-1.57198 -32.9455,-49.16366 -86.8203,-50.07422 a 32.237213,32.237213 0 0 0 -0.1426,-0.004 c -11.6904,-0.14613 -21.9161,0.41402 -31.6094,2.24609 13.633,-16.94074 26.2804,-34.57318 37.1328,-53.69531 a 32.237213,32.237213 0 0 0 0.1446,-0.25586 c 1.3658,-2.45854 2.8581,-5.72895 3.8945,-9.1836 a 32.237213,32.237213 0 0 0 0.1309,-0.44922 c 4.276,-15.04535 4.0036,-32.32046 -3.5664,-46.45117 a 32.237213,32.237213 0 0 0 -0.1778,-0.32812 c -13.2944,-24.14257 -31.5039,-24.84796 -46.8418,-27.70313 -15.3379,-2.85516 -31.5942,-3.67125 -47.2265,-3.86523 z m -98.4942,122.5 c -21.2679,25.33568 -47.8593,55.94742 -68.6191,76.84179 -2.8889,2.86761 -5.8768,5.71336 -8.8086,8.57813 1.3755,-21.06205 4.9986,-41.11923 14.6113,-67.28125 a 32.237213,32.237213 0 0 0 0.019,-0.0547 c 3.3135,-9.06836 3.115,-6.76291 3.1758,-6.77539 a 32.237213,32.237213 0 0 0 0.01,-0.002 c 5.2143,-1.0696 9.7266,-2.29153 13.834,-3.31836 a 32.237213,32.237213 0 0 0 0.2715,-0.0684 c 7.886,-2.0445 15.8246,-4.0152 25.5996,-5.57227 a 32.237213,32.237213 0 0 0 0.2011,-0.0312 c 5.6512,-0.9368 12.6021,-1.73889 19.709,-2.3164 z m 93.2031,88.64648 c -13.9564,42.27251 -19.366,93.97217 -22.6718,142.34375 -2.013,29.4537 -2.7016,56.81733 -2.5684,78.72266 -23.0019,-35.08813 -38.5304,-67.0647 -47.8379,-86.64453 a 32.237213,32.237213 0 0 0 -0.031,-0.0703 c -5.3971,-11.28468 -9.4785,-20.7454 -12.9317,-29.0625 25.5032,-39.784 55.8986,-73.07205 86.041,-105.28907 z m 1427.9239,38.69336 c 3.263,-0.0515 6.1401,-0.0254 8.9746,0.006 -11.7588,20.12904 -15.228,41.6218 -20.9688,71.89844 -6.0518,31.91698 -11.3346,70.32239 -15.166,109.13476 -3.2033,32.44932 -5.2917,64.87616 -5.9258,94.20508 -3.2559,-26.90643 -6.8472,-53.65956 -9.5898,-73.07422 l 0.01,0.0801 c -1.9207,-13.84881 -3.648,-26.96174 -3.6094,-26.48633 a 32.237213,32.237213 0 0 0 -0.021,-0.25586 c -2.3224,-26.05123 -4.6418,-48.59616 -6.6387,-68.26562 l 0.021,0.20312 c 0,0 -4.9037,-54.53643 -2.4062,-99.27343 0.9076,-0.476 1.5569,-0.93205 2.6347,-1.27149 4.1787,-1.31598 7.5391,-1.89453 7.5391,-1.89453 a 32.237213,32.237213 0 0 0 0.041,-0.008 c 18.0189,-3.00315 26.057,-4.25039 31.5606,-4.51563 a 32.237213,32.237213 0 0 0 0.1874,-0.01 c 4.8948,-0.26427 9.3119,-0.40883 13.3575,-0.47266 z m -267.8262,11.59571 0.3301,0.0996 c -0.051,-0.0158 -0.099,-0.0195 -0.1504,-0.0352 -0.056,-0.0167 -0.1242,-0.048 -0.1797,-0.0644 z m -267.793,1.88867 c 0.065,0.11315 0.2332,0.35128 0.2657,0.40625 l 0.1347,0.23047 c -0.1297,-0.22423 -0.2703,-0.41363 -0.4004,-0.63672 z m 719.586,5.30273 c 0.2149,0.64489 0.1166,0.34445 0.2324,0.69336 l 0.061,0.24219 c -0.022,-0.0722 -0.062,-0.21137 -0.084,-0.28321 a 32.237213,32.237213 0 0 0 -0.209,-0.65234 z m -365.2227,6.7168 c 0.6509,2.92126 1.3256,6.69948 1.791,11.91015 1.5785,17.67057 1.0046,46.22362 2.0313,81.47461 0,0 2.3085,84.78117 25.3144,183.07227 0,0 0.01,0.0195 0.01,0.0195 0,0.0208 2.4127,10.13285 6.8301,23.70313 -7.8652,-15.75483 -15.4311,-31.59119 -21.7071,-48.49219 l -0,-0.008 c -16.5694,-44.80516 -23.7841,-88.88007 -30.3809,-129.95899 l -0.01,-0.0606 c -4.6059,-29.03737 -9.1236,-57.69187 -17.4766,-85.53515 a 32.237213,32.237213 0 0 0 -0.053,-0.17383 c -2.48,-8.10114 -6.5072,-15.58971 -11.9746,-22.26172 9.9066,-4.77091 20.0082,-9.3328 36.2382,-12.30273 5.4715,-0.98307 7.1942,-1.1203 9.3926,-1.38672 z m -103.5566,18.5664 c 0.023,0.0132 0.048,0.022 0.07,0.0352 0.022,0.013 0.038,0.028 0.061,0.041 z m 718.8418,1.70704 c -0.7589,3.72428 -1.128,7.26919 -1.0254,10.07226 0.2606,7.12349 1.6729,11.90192 2.9902,16.26953 2.6509,8.88711 7.1936,23.25769 17.4238,37.18555 -25.34,4.55978 -48.639,8.99941 -71.4785,13.48242 12.7083,-19.23964 26.882,-40.13916 41.4317,-61.35742 a 32.237213,32.237213 0 0 0 0.035,-0.0508 c 3.7096,-5.43258 7.027,-10.33268 10.6231,-15.60156 z m -1376.541,4.40234 c 13.3912,2.80041 27.4162,2.43855 47.2851,3.13086 1.7349,0.0617 3.8771,0.27811 5.709,0.39258 -10.0711,11.79451 -20.0932,23.4358 -30.1445,34.98242 -0.36,-6.15097 -1.6435,-12.498 -4.8477,-19.38281 -3.2946,-7.08348 -9.9154,-14.19786 -18.0019,-19.12305 z m -272.0254,9.32422 c -0.01,0.0221 -0.013,0.0444 -0.022,0.0664 -0.01,0.0166 -0.017,0.0283 -0.024,0.0449 z m 1294.0058,7.17383 c 0.1897,0.0228 0.498,0.17687 0.791,0.32812 -0.9723,-0.17947 -1.2105,-0.37852 -0.791,-0.32812 z M 2360.25,633.20898 c 0.024,0.0477 0.2361,0.71915 0.3027,0.89063 -0.2691,-0.59109 -0.3358,-0.95719 -0.3027,-0.89063 z m -698.3262,9.46094 c 0.1697,0.24193 0.3498,0.5467 0.5176,0.78516 a 32.237213,32.237213 0 0 0 0,0.006 c 6.992,9.93063 19.6161,27.11499 41.666,37.55468 8e-4,3.8e-4 0,0.002 0,0.002 0,8.9e-4 0,0.001 0.01,0.002 19.9969,9.46968 36.5399,8.10498 65.2539,9.10547 1.735,0.0617 3.8771,0.27811 5.709,0.39258 -14.2177,16.65075 -28.4761,33.13941 -42.5683,49.29687 -18.1024,20.72246 -36.8094,42.39075 -55.4707,64.51367 -0.6208,-9.54926 -1.1893,-18.58635 -1.8789,-28.95898 l -0.01,-0.11328 -0.8789,-13.97461 a 32.237213,32.237213 0 0 0 -0.01,-0.11914 c -0.9174,-13.76143 -1.8604,-24.95577 -2.5859,-32.73633 -1.207,-13.73288 -3.26,-31.85026 -9.7598,-85.75586 z m 1670.6387,18.28516 c 0.027,0.026 0.055,0.0444 0.082,0.0703 0.017,0.0163 0.03,0.0344 0.047,0.0508 z m -1793.7051,0.7168 c 1.8783,1.76712 3.7387,4.43844 5.9336,9.11132 4.1073,8.74414 7.7324,24.10387 8.4824,45.36914 a 32.237213,32.237213 0 0 0 0,0.0723 c 0.892,23.74872 4.7253,58.76592 9.0196,90.83008 2.1471,16.03208 4.4093,31.15263 6.5351,43.49414 1.8327,10.63979 2.6094,17.17616 5.4317,25.76953 -1.2057,-0.84371 -2.2132,-1.5795 -3.4551,-2.44922 -22.1322,-15.49979 -49.604,-34.62278 -76.1211,-58.40234 2.2844,-1.02012 4.2981,-2.11636 5.8125,-3.08008 18.764,-11.94074 21.8006,-28.32451 24.8672,-43.09375 3.0661,-14.76731 4.7866,-31.82337 6.998,-53.73633 v -0.008 c 1.7747,-17.54189 3.7878,-36.19524 6.4922,-53.87695 z m 1018.6367,0.96679 c -0.3379,-0.0349 1.5272,0.15738 0.1016,0.0137 -0.036,-0.004 -0.065,-0.01 -0.1016,-0.0137 z m -1341.9824,1.76953 c 0.073,0.12948 0.1922,0.33236 0.2656,0.46289 -0,-0.008 -0.011,-0.0153 -0.016,-0.0234 z m 1363.8809,16.67969 c 0.057,0.71745 0.032,1.13607 0.027,1.00586 a 32.237213,32.237213 0 0 0 -0.033,-0.63672 c -0.01,-0.10107 0.011,-0.26416 0.01,-0.36914 z m -13.293,5.81836 c 0.1313,0.8213 0.2778,1.53228 0.4082,2.39648 a 32.237213,32.237213 0 0 0 0.029,0.0703 c 0,0.002 0,0.0131 0,0.0137 -5e-4,0.0135 -0.8518,-0.58899 -0.4375,-2.48047 z m 0.4844,2.58398 a 32.237213,32.237213 0 0 0 5.5,13.41016 c -0.7419,-1.09146 -1.6558,-2.33797 -2.0645,-3.0957 -1.3184,-2.44474 -1.7097,-3.67527 -2.0488,-4.64649 -0.6781,-1.94244 -0.8118,-2.68318 -0.9551,-3.30664 -0.2865,-1.24691 -0.3296,-1.63787 -0.3808,-1.97265 -0.05,-0.32427 -0.038,-0.27527 -0.051,-0.38868 z m 829.5625,2.65821 c 0.2841,0.11493 0.6006,0.25036 0.8867,0.36718 -0.3286,0.1973 -0.6558,0.40248 -0.9844,0.59961 0.026,-0.32693 0.079,-0.63564 0.098,-0.96679 z M 2967.5,696.1875 c 0.077,0.002 -0.01,0.59481 -0.3008,1.49219 a 32.237213,32.237213 0 0 0 0.016,-0.15235 c 0.073,-0.9246 0.2155,-1.34164 0.2852,-1.33984 z m -394.873,7.52734 a 32.237213,32.237213 0 0 0 11.3378,9.60743 c 8e-4,3.9e-4 -5.2592,-3.2032 -6.914,-4.66407 -1.6549,-1.46086 -2.8006,-2.74876 -3.7012,-3.85937 -0.3909,-0.48209 -0.4122,-0.6616 -0.7226,-1.08399 z m 383.6679,5.59961 c 0.169,-0.005 0.348,0.1014 0.5508,0.11914 -1.1141,0.44699 -1.1815,-0.099 -0.5508,-0.11914 z m -1100.4238,56.07617 c 0.8277,7.74793 3.0939,15.27372 6.5469,22.11719 -8.9866,0.74715 -17.9121,1.50777 -26.795,2.27344 6.5666,-7.97361 12.9748,-15.77542 20.2481,-24.39063 z m -434.7969,11.16016 c 0.016,0.0395 0.032,0.0563 0.049,0.0957 0.015,0.0352 0.01,0.0426 0.025,0.0781 z m 1664.1856,0.26563 c 0.018,0.0261 0.039,0.0501 0.057,0.0762 0.01,0.0141 0.016,0.0308 0.025,0.0449 z m -1161.7442,6.03125 c -0.109,0.007 -0.1958,0.0161 -0.3047,0.0234 -0.01,7.6e-4 -0.02,-7.5e-4 -0.029,0 z m -60.5312,5.92187 c 0.022,0.0415 0.048,0.0815 0.07,0.12305 0.01,0.0177 0.016,0.037 0.025,0.0547 z m -398.4883,28.20899 c 0.093,0.029 0.2682,0.0657 0.3672,0.0957 0.1375,0.0402 0.254,0.0913 0.3926,0.13086 z m 22.4316,1.0625 -1.8457,0.36328 c 0.4246,-0.0708 0.7819,-0.19502 1.1934,-0.27735 0.2227,-0.0463 0.4288,-0.0351 0.6523,-0.0859 z m 88.6407,62.20898 c 0.016,0.0424 0.037,0.0865 0.053,0.12891 0.016,0.0423 0.023,0.0747 0.039,0.11718 z m 83.0468,5.32031 c 0.019,0.0356 0.042,0.0699 0.061,0.10547 0.012,0.0233 0.021,0.049 0.033,0.0723 z m 1091.9258,33.74024 0.209,0.4414 c -0.061,-0.1326 -0.128,-0.25623 -0.1895,-0.38867 -0.01,-0.0171 -0.011,-0.0357 -0.019,-0.0527 z m 699.6074,17.23828 a 32.237213,32.237213 0 0 0 0.039,0.006 h 0.5332 z"
   inkscape:label="offset"
   style="fill:#ff00ff" /><path
   id="path7552"
   d="m 1445.98,322.40571 c -29.2125,-0.3625 -56.8846,2.08223 -56.8846,2.08223 -39.2,3.89999 -92.1923,10.70448 -155.1922,22.90447 0,0 -16.5183,6.61205 -29.0182,24.01204 -35.9,49.99995 -49.8848,267.41082 -49.8848,267.41082 0,0 -15.7156,243.57408 15.2844,320.574 2,5.1 5.8036,7.62006 5.8036,7.62006 24.2,14.19999 23.0296,-27.80757 32.4296,-101.8075 4.1,-37.79996 9.178,-84.91277 17.278,-145.31271 2.9,-24.79997 9.1186,-47.3716 15.0186,-71.37157 0.5,-1 2.0911,-1.1114 2.7911,0.0886 7.2,12.79999 17.5017,30.70122 30.7017,51.7012 11.5,18.19998 34.5757,54.88136 59.6757,85.68133 44.8999,55.19995 91.032,85.311 135.8319,114.61097 0,0 81.6806,53.38377 117.1805,39.78378 2,-0.8 3.1012,-2.17083 3.1012,-2.17083 0.2,-0.3 0.3874,-0.63035 0.4874,-0.93035 7,-14.89999 -65.5828,-47.17065 -130.3827,-109.87058 -68.2,-65.99994 -104.9007,-143.33089 -121.3007,-177.83086 -7.7,-16.09998 -13.4996,-29.861 -17.4996,-39.96099 -0.3,-0.7 -0.686,-1.52525 -0.886,-2.52525 -0.7,-3 -0.01,-6.21623 1.5949,-8.81623 60.6999,-99.7999 146.1812,-158.7788 189.8812,-235.77873 0.5,-0.9 0.8961,-1.79107 1.1961,-2.79106 2.7,-9.5 2.0254,-16.81715 -0.9746,-22.41715 -6.25,-11.34999 -37.02,-14.52319 -66.2325,-14.88569 z m -57.1947,58.78962 c 5.1,0.8 9.2313,4.08333 11.0313,8.68332 1.7,4.4 0.8735,9.31359 -2.1265,13.11359 -20.4,25.39997 -63.5052,76.99468 -95.6051,109.29465 -13.9,13.79998 -28.4065,27.72427 -43.1065,41.02425 -2.5,2.2 -5.4618,3.36701 -8.4618,3.36701 -1.7,0 -3.3948,-0.36327 -5.0948,-1.06327 -4.9,-2.2 -8.0188,-7.12626 -8.0188,-12.62625 -0.1,-42.19996 -0.189,-75.39434 17.4109,-123.29429 5.7,-15.59999 14.7804,-24.79044 26.9804,-27.29044 3.9,-0.8 8.0933,-1.91258 12.4933,-3.01258 8.1,-2.09999 17.3195,-4.40237 28.6195,-6.20237 18.7,-3.09999 45.8781,-5.19361 65.8781,-1.99362 z m 1500.841,70.21971 c -8.7375,-0.4125 -20.0846,0.81956 -34.3346,2.56955 -19.3999,2.4 -40.5857,5.39345 -63.4857,8.99344 -0.5,0.1 -37.8069,6.30858 -77.7068,11.20857 -70.8,8.7 -123.3043,11.30057 -127.1043,27.60056 -0.5,2.3 -0.6874,5.23136 -0.4874,11.03136 0.2,7.19999 0.8997,35.86091 13.9997,43.4609 13.3,7.79999 27.7804,-12.98807 72.0804,-21.08806 16.1,-2.9 24.222,-4.09745 31.322,-0.79745 22.7999,10.89999 17.8919,55.00447 19.8919,123.60441 0,0 2.2993,81.92338 24.4993,176.72328 0,0 17.895,77.47497 50.1949,87.67496 0.9,0.3 1.8139,0.39872 2.6139,0.39872 1.8,0 3.3847,-0.61641 4.7847,-1.81641 2.9,-2.4 8.1949,-6.87036 1.5949,-71.7703 -3.5,-34.89996 -9.2693,-75.61637 -13.0693,-102.51634 -1.9,-13.69999 -3.51,-24.6094 -3.81,-28.3094 -2.3,-25.79997 -4.6011,-48.17168 -6.6011,-67.87166 0,0 -5.6038,-58.90865 -2.3038,-108.4086 0.3,-3.89999 1.0924,-7.12379 2.3924,-9.92379 0,0 1.6087,-3.25807 4.2087,-6.15807 8.5,-9.19999 30.303,-12.80347 30.303,-12.80347 18,-2.99999 27.0093,-4.51759 35.3092,-4.91759 42.6,-2.3 56.4681,3.80391 62.0681,-4.69608 3.8,-5.8 1.2975,-15.60048 -2.7025,-31.10047 -1.9,-7.39999 -2.8733,-11.08952 -4.8733,-13.68952 -3.9,-4.89999 -10.0468,-6.98604 -18.7843,-7.39854 z M 1534.098,462.09198 c -16,-0.2 -26.7776,1.10875 -34.7776,4.20875 -10.2,4 -14.4008,13.89445 -17.1008,19.09445 -36.5,70.39992 -37.4106,264.60801 -31.4106,278.70799 1.8,4.3 4.386,8.10739 4.386,8.10739 2.2999,3.3 4.6023,5.68842 6.2023,7.08842 0,0 5.7149,4.91122 12.7149,6.91122 1.6,0.5 3.4707,0.89872 5.6707,0.39872 1.2,-0.2 2.3113,-0.71768 3.4113,-1.41768 9.9,-6.3 12.7009,-29.27791 17.1009,-72.87787 2.5999,-25.69997 5.5971,-54.90679 11.2971,-81.20676 1,-4.6 4.815,-7.70867 9.215,-7.70867 7.3,0 15.212,1.6176 24.012,4.9176 25.2,9.29999 38.9699,38.50034 40.6699,86.70029 1.6,42.59996 14.9906,140.09604 20.2906,153.99603 6.1,16.39998 21.8042,43.10648 33.4042,43.10648 0.8,0 1.5037,-0.0987 2.3037,-0.39872 5.2,-1.8 7.734,-9.00524 6.734,-43.50521 -0.7,-23.39998 -2.8277,-54.72048 -5.2277,-90.82044 l -0.8861,-14.08824 c -0.9,-13.49999 -1.8252,-24.48653 -2.5252,-31.98652 -1.3,-14.79999 -2.7972,-28.32917 -11.2972,-98.5291 -1.4,-11.19999 -1.0848,-9.17567 -1.2848,-11.07567 -8.0999,-67.29993 -8.2121,-84.5036 -20.5121,-106.50358 -4,-7.19999 -8.001,-12.4186 -10.101,-15.0186 -5.4,-6.69999 -26.7896,-37.50028 -62.2895,-38.10028 z m 1768.2961,20.60073 c -31.4,2.5 -67.0974,4.02644 -101.4974,5.62644 -35.0999,1.5 -71.2796,3.07074 -103.5796,5.67074 -4.3,0.3 -14.0274,2.33018 -15.7274,7.93018 -1.1,3.59999 1.4922,7.49335 5.8922,12.49334 7.9,8.99999 16.1094,18.30193 31.8093,23.70192 9.9,3.4 24.3304,2.39873 53.0303,0.39873 14.1,-1 28.2977,-0.60502 42.3977,-1.90502 10.6,-1 19.4855,-2.19498 21.8855,1.90502 2.5,4.29999 -3.7936,11.98697 -5.4936,14.48697 -20.2999,30.79996 -41.2921,60.59139 -61.492,89.49136 -19.9,28.39997 -40.5175,57.8294 -60.5175,88.02937 l -0.2215,0.39872 c -4.3,8.3 -3.0988,18.76638 3.1012,27.86637 5.6,8.3 14.0223,13.50347 20.8223,12.80347 46.5999,-5.59999 102.0835,-15.77659 150.9834,-24.67658 11.2,-1.99999 22.1954,-3.99225 32.6954,-5.89225 l 0.5316,-0.13291 0.3987,-0.17721 c 22.9,-9.89999 50.4976,-40.10112 45.8976,-55.20111 -1.6,-4.79999 -6.2135,-9.82133 -20.1134,-7.22133 -36.6,6.4 -66.7064,12.30712 -98.7064,18.60712 l -8.1959,1.59489 c -5.2,1 -10.2073,2.21131 -15.1072,3.41131 -11.6,2.79999 -22.4701,5.3948 -33.6701,5.0948 1.1,-4.09999 6.0007,-14.80651 24.1007,-43.10648 15.1,-23.69998 34.9821,-52.67516 54.1821,-80.67513 18.3,-26.79998 35.6052,-52.03112 47.0051,-70.13111 4,-6.29999 3.7899,-17.77658 -0.3101,-24.67657 -2.4,-4 -6.001,-6.11505 -10.101,-5.71505 z m -906.2994,22.55005 c -8.0375,-2.79999 -16.7569,-2.23928 -25.6069,1.86072 -28.3,13.09998 -42.8025,41.88955 -51.3025,62.28953 -1.7,4.19999 -4.0024,6.71121 -6.2024,6.91121 -2.2,0.1 -4.7884,-2.12516 -7.0884,-6.02516 -10.3,-17.79998 -21.6092,-31.16466 -35.3092,-45.76464 -16.3,-17.29998 -44.5908,-23.5237 -61.8908,-13.42371 -4.2,2.4 -14.7032,11.60397 -23.3032,43.90394 -8.8,33.49996 -12.4098,80.31039 -10.8099,139.11033 1.8,62.59994 16.1993,105.88018 27.9993,131.18016 13.7,29.39997 30.4192,48.33419 42.6192,48.33419 7.7,0 12.9818,-2.12388 16.0818,-6.42388 6.7,-9.29999 1.0129,-26.20122 -7.4871,-51.7012 -14.1,-41.79996 -35.3983,-105.08654 -17.8983,-181.28646 0.9,-3.7 4.2187,-16.11979 11.5187,-18.11978 6.1,-1.7 20.9671,3.10498 51.967,54.00493 3.9,6.29999 10.6312,10.0238 18.0312,9.9238 7.4,-0.1 13.8996,-4.13265 17.4996,-10.63264 l 0.3987,-0.79745 c 13.5,-24.39998 33.8975,-61.30357 45.8975,-57.90357 6.9,1.9 10.3073,13.797 11.6073,18.297 13.1,45.49995 5.5886,119.53355 0.089,173.53349 -5,49.09996 -6.1266,63.38817 1.3734,66.18817 6.1,2.3 11.9224,1.7165 17.3223,-1.6835 24.7,-15.59999 34.9091,-94.79675 42.3091,-178.09667 0.3,-4 6.7718,-99.82618 -36.3282,-165.42611 -6.1,-9.29999 -13.4493,-15.4527 -21.4868,-18.2527 z m -491.0063,3.54422 c -4.3,-0.1 -14.192,0.80237 -16.392,6.20237 -1.4,3.39999 0.7189,7.71359 4.5189,13.11358 6.9,9.79999 14.1069,19.88033 29.1068,26.98032 9.5,4.5 23.8873,5.02516 52.5873,6.02516 14.1,0.5 28.1976,2.36956 42.3976,2.56956 10.7,0.1 19.5868,-0.0912 21.4868,4.20875 2,4.59999 -4.9998,11.52243 -6.9998,13.82243 -23.4,28.39997 -47.3742,55.89156 -70.5741,82.49154 -22.8,26.09997 -46.4109,53.21819 -69.5109,81.11816 l -0.3101,0.39872 c -5.1,7.79999 -5.1114,18.29929 0.089,27.99928 4.7,8.89999 12.5046,14.88569 19.4046,14.88569 46.9999,-0.7 103.1999,-4.89472 152.7998,-8.59471 11.4,-0.8 22.4941,-1.69235 33.0941,-2.39235 h 0.5316 l 0.4873,-0.13291 c 23.8,-7.39999 54.4797,-34.56201 51.4797,-50.06199 -1.1,-4.8 -5.083,-10.31496 -19.183,-9.21496 -37,2.5 -67.6797,5.17448 -100.0797,7.97448 l -8.3289,0.70884 c -5.3,0.5 -10.373,1.11641 -15.373,1.81641 -11.8,1.5 -23.0245,3.00629 -34.0245,1.50629 1.6,-3.89999 7.4867,-14.11544 28.4866,-40.31541 17.5,-21.89998 40.3225,-48.71709 62.4225,-74.51707 21,-24.69997 40.8821,-47.98189 54.1821,-64.68187 4.6,-5.8 5.7038,-17.28798 2.3038,-24.58798 -2,-4.29999 -5.2922,-6.7226 -9.3922,-6.8226 -31.5,-0.9 -67.086,-3.08342 -101.586,-5.18341 -35,-2.2 -71.3239,-4.41632 -103.6239,-5.31632 z m 1050.3273,14.53127 c -11.7,1.1 -20.2361,5.26691 -23.4361,6.86691 -0.8,0.4 -1.4708,0.79617 -2.1708,1.19617 -4.1,2.6 -14.6273,9.93867 -22.7273,22.63866 -24.6999,38.89996 -53.1991,299.09867 -31.4992,347.59862 2.6,5.8 6.1226,9.09089 10.3226,9.79089 8.7,1.4 15.7135,-2.29107 16.6135,-2.79107 1.3,-0.7 10.3009,-6.2374 13.6009,-23.03738 4.8,-24.69997 7.9744,-64.87828 11.4744,-107.47824 2.2,-27.59997 4.5099,-56.21818 7.3099,-81.11816 0.1,-0.6 0.077,-1.19362 0.1772,-1.99362 0.3,-3.79999 0.7202,-8.90474 4.1202,-12.40474 6.4,-6.49999 24.0028,-8.0772 37.3028,-0.17721 6.6,3.89999 10.1959,8.89845 11.6959,10.89845 18.9,26.39998 24.1006,57.68206 24.1006,57.68206 20.1,96.6999 20.1219,96.70704 38.3218,171.40697 0.1,0.5 11.2625,45.29882 32.5625,45.49882 h 0.1329 c 3.9,0 7.2909,-1.78341 9.7909,-5.18341 6.7,-8.99999 7.8771,-31.32612 3.6771,-68.22609 -3.3,-29.59997 -10.1792,-68.49706 -20.3792,-115.49702 -18.7,-85.99991 -43.005,-174.49461 -54.005,-209.99458 -0.1,-0.3 -0.1987,-0.80629 -0.3987,-1.50629 -0.8,-3.69999 -2.6188,-11.47166 -8.0188,-19.27165 -13.6999,-19.69998 -39.2681,-26.69809 -58.5681,-24.89809 z m -1427.6087,4.56317 c 3.6,-1.8 7.7972,-1.76709 11.2972,0.13291 12.2,6.39999 22.5903,15.00694 30.7903,25.60693 5.2,6.7 9.5149,14.07413 12.7149,21.97412 1.7,3.9 0.9722,8.2959 -1.7278,11.6959 -2.2,2.8 -5.4935,4.40748 -8.9935,4.60748 -0.9,0 -1.8024,0.0228 -2.7024,-0.17721 l -43.1065,-7.13273 c -6.5,-1.1 -10.9681,-7.06802 -9.9681,-13.46801 l 5.1834,-34.33456 c 0.6,-3.79999 3.0125,-7.10483 6.5125,-8.90483 z m 1421.5836,48.02408 c 10.5,-4.6 25.5044,10.39718 26.4044,11.29717 0,0 10.6983,11.10678 14.3983,32.60676 0.4,2.3 0.5089,4.67074 0.7089,5.67074 0.8,6.49999 1.7761,13.61979 -6.4239,18.11978 -3.2,1.7 -8.2668,2.48095 -13.8668,2.48095 -11.2999,0 -24.7055,-2.99982 -29.5055,-6.99982 -4.6,-3.79999 -5.0025,-8.56001 -2.7025,-29.85999 2.2,-19.59998 3.8859,-27.20046 7.8859,-31.10046 0.9,-0.9 1.8012,-1.61513 3.1012,-2.21513 z m -381.4016,4.91759 c -6.8,1.0125 -12.0743,2.97585 -14.9743,4.07585 -2.9,1.1 -15.5233,6.18178 -27.4233,19.58177 -9.9,11.09999 -15.7095,23.74144 -24.8095,63.4414 -5.8,25.09998 -9.0883,44.6961 -10.5883,53.29609 -6.6,39.49996 -10.1972,60.96733 -11.2972,90.0673 -0.6,16.19998 -0.5849,38.51353 2.2151,65.21351 l 0.1772,2.30373 0.6203,0.31012 c 6.7,25.19998 17.4918,29.27266 23.3918,29.37266 9.1,0.2 17.088,-7.79947 21.088,-20.99946 0.2,-0.59999 0.2101,-1.18196 0.3101,-12.58195 0.1,-7.09999 0.089,-15.69955 0.089,-17.49955 v -0.22151 -0.48733 c -0.3,-17.79998 0.4113,-44.08436 3.4113,-67.38434 5,-38.69996 11.3008,-45.71013 17.1008,-48.91013 15.5,-8.59999 37.1003,4.98214 38.1003,5.58214 18.5999,11.99999 19.1902,29.30699 34.2902,74.20694 5.1,14.59999 18.7304,50.28758 49.5304,90.68754 0,0 10.1727,13.43976 29.3726,29.23975 7.3,6.09999 15.1147,11.58204 19.7147,9.08204 3.3,-1.8 4.2974,-7.32005 4.2974,-7.62005 0.5,-2.7 0.1924,-5.5846 -1.1076,-8.2846 -5,-10.79999 -10.5034,-21.40677 -16.3034,-32.60675 -11.5999,-22.59998 -23.6042,-45.90196 -33.4042,-72.30194 -17.8999,-48.39995 -25.3865,-94.99779 -31.9865,-136.09775 -4.6,-28.99997 -9.0249,-56.384 -16.5249,-81.38398 -1.5,-4.89999 -4.0871,-9.42498 -7.4871,-13.02498 -9.5,-9.89999 -20.0905,-14.27302 -23.7905,-15.37302 -8.9,-2.74999 -17.2121,-2.696 -24.0121,-1.6835 z m 776.5369,5.71504 c -3.4,-0.18749 -6.7776,0.36956 -8.7276,2.56956 -2.4,2.8 -1.8114,7.47813 0.089,13.77812 3.4,11.39999 7.0059,23.4219 19.0059,34.82189 7.6,7.29999 21.1241,12.27285 48.024,22.37284 13.2,5 25.9851,11.20466 39.3851,15.90465 10.1,3.5 18.6944,6.09846 19.0944,10.89846 0.4,4.99999 -8.387,9.29845 -10.987,10.89845 -31.3,19.49998 -62.8128,38.02136 -93.2128,55.82134 -29.9,17.49999 -60.9065,35.70241 -91.7065,54.80239 l -0.3987,0.31012 c -7.4,5.79999 -10.6719,15.6816 -8.7719,26.58159 1.7,9.89999 7.1009,17.99062 13.6009,20.29061 44.6999,14.29999 99.3722,28.20404 147.5721,40.40402 11,2.8 21.8081,5.496 32.208,8.196 l 0.4874,0.1329 h 0.5316 c 25,0.5 62.6705,-15.40048 64.7705,-31.10046 0.6,-4.69999 -1.4958,-11.20848 -15.1958,-14.70848 -35.9,-9.39999 -65.8102,-16.63356 -97.5102,-24.23355 l -8.0631,-1.99362 c -5.0999,-1.2 -10.2401,-2.18979 -15.2401,-3.18979 -11.7,-2.3 -22.6953,-4.49217 -32.6953,-9.39217 2.7,-3.19999 11.6281,-10.90686 39.8281,-29.10684 23.5999,-15.19998 53.6903,-33.31516 82.8902,-50.81514 27.8,-16.69999 54.0033,-32.46976 71.9032,-44.16975 6.2,-4 10.9124,-14.59436 10.0124,-22.59435 -0.5,-4.7 -2.9226,-8.03647 -6.8226,-9.43647 -29.5999,-10.79999 -62.6862,-24.16994 -94.5861,-37.16993 -32.5,-13.19998 -66.2242,-26.91168 -96.6241,-38.01167 -2.05,-0.75 -5.4606,-1.67322 -8.8606,-1.86072 z m -1643.8056,19.05015 c -4.3,-0.1 -14.2363,0.80237 -16.4363,6.20237 -1.4,3.39999 0.7188,7.71359 4.5188,13.11358 6.9,9.79999 14.1069,19.88033 29.1069,26.98032 9.5,4.5 23.8873,5.02516 52.5872,6.02516 14.1,0.5 28.1977,2.36955 42.3977,2.56955 10.7,0.1 19.5868,-0.0912 21.4868,4.20876 2,4.59999 -4.9999,11.52243 -6.9999,13.82243 -23.3999,28.39997 -47.3741,55.89156 -70.5741,82.49154 -22.8,26.09997 -46.4109,53.21818 -69.5108,81.11816 l -0.3102,0.39872 c -5.1,7.79999 -5.067,18.29929 0.1329,27.99928 4.7,8.89999 12.4603,14.88569 19.3603,14.88569 47,-0.7 103.1999,-4.89472 152.7999,-8.59471 11.3999,-0.8 22.5384,-1.69235 33.1383,-2.39235 h 0.4874 l 0.4873,-0.13291 c 23.8,-7.39999 54.524,-34.56201 51.524,-50.062 -1.1,-4.79999 -5.1274,-10.31495 -19.2274,-9.21495 -36.9999,2.5 -67.6797,5.17448 -100.0797,7.97448 l -8.3289,0.70884 c -5.3,0.5 -10.373,1.11641 -15.373,1.81641 -11.8,1.5 -23.0244,3.00629 -34.0244,1.50629 1.6,-3.89999 7.5309,-14.11544 28.5309,-40.31541 17.5,-21.89998 40.2782,-48.71709 62.3781,-74.51707 21,-24.69997 40.9265,-47.98189 54.2265,-64.68187 4.6,-5.8 5.6594,-17.28798 2.2594,-24.58798 -2,-4.29999 -5.2922,-6.7226 -9.3921,-6.8226 -31.5,-0.9 -67.0861,-3.08342 -101.586,-5.18342 -35,-2.19999 -71.2797,-4.41631 -103.5796,-5.31631 z m 862.7942,29.10684 c 6.7999,-0.1 11.7983,4.22389 14.3983,6.42388 16.1,13.89999 18.8678,32.77231 20.4678,43.3723 0.2,0.1 1.5406,11.03 -2.2594,14.93 -0.9,0.9 -2.1113,1.37338 -3.4113,1.37338 h -0.6202 c -6.6,-0.8 -12.9717,-2.00119 -19.2717,-3.10119 -6.1,-1.09999 -12.4286,-2.31258 -18.8286,-3.01258 -0.9,-0.1 -2.2885,-0.85943 -3.5885,-2.25943 -2.7,-2.7 -3.0898,-6.53775 -3.1898,-9.03774 -0.7,-11.69999 1.7923,-24.78916 2.3923,-27.68916 2.5,-13.29999 3.4771,-17.01596 7.177,-19.31596 2.7,-1.6 5.5341,-1.6835 6.7341,-1.6835 z"
   inkscape:label="whole" /></g>
            <g
   id="group_bulbs"
   inkscape:label="group_bulbs"
   transform="matrix(3.9622461,0,0,3.9622461,763.28221,-1665.5647)">
                  <circle
   id="bulb-4"
   style="display:inline;fill:#ff0000;fill-opacity:1;stroke-width:1.19236"
   cx="112.80262"
   cy="542.77423"
   r="2.5" />
                  <circle
   id="bulb-3"
   style="display:inline;fill:#ff0000;fill-opacity:1;stroke-width:1.19236"
   cx="109.7562"
   cy="573.45551"
   r="2.5" />
                  <circle
   id="bulb-2"
   style="display:inline;fill:#ff0000;fill-opacity:1;stroke-width:1"
   cx="106.49088"
   cy="605.53076"
   r="2.5" />
                  <circle
   id="bulb-1"
   style="display:inline;fill:#ff0000;fill-opacity:1;stroke-width:1"
   cx="105.27954"
   cy="-638.42126"
   r="2.5"
   transform="scale(1,-1)" />
                  <circle
   id="bulb-8"
   style="display:inline;fill:#ff0000;fill-opacity:1;stroke-width:1.19236"
   cx="160.52336"
   cy="533.01953"
   r="2.5" />
                  <circle
   id="bulb-7"
   style="display:inline;fill:#ff0000;fill-opacity:1;stroke-width:1.19236"
   cx="174.85715"
   cy="511.61154"
   r="2.5" />
                  <circle
   id="bulb-6"
   style="display:inline;fill:#ff0000;fill-opacity:1;stroke-width:1.19236"
   cx="146.37206"
   cy="509.7933"
   r="2.5" />
                  <circle
   id="bulb-5"
   style="display:inline;fill:#ff0000;fill-opacity:1;stroke-width:1.19236"
   cx="119.38454"
   cy="517.95502"
   r="2.5" />
                  <circle
   id="bulb-10"
   style="display:inline;fill:#ff0000;fill-opacity:1;stroke-width:1.19236"
   cx="130.6163"
   cy="572.20605"
   r="2.5" />
                  <circle
   id="bulb-11"
   style="display:inline;fill:#ff0000;fill-opacity:1;stroke-width:1.19236"
   cx="140.89993"
   cy="596.4339"
   r="2.5" />
                  <circle
   id="bulb-21"
   style="display:inline;fill:#ff0000;fill-opacity:1;stroke-width:1.19236"
   cx="179.02805"
   cy="598.76337"
   r="2.5" />
                  <circle
   id="bulb-22"
   style="display:inline;fill:#ff0000;fill-opacity:1;stroke-width:1.19236"
   cx="183.22275"
   cy="571.49756"
   r="2.5" />
                  <circle
   id="bulb-23"
   style="display:inline;fill:#ff0000;fill-opacity:1;stroke-width:1.19236"
   cx="189.54684"
   cy="544.71136"
   r="2.5" />
                  <circle
   id="bulb-24"
   style="display:inline;fill:#ff0000;fill-opacity:1;stroke-width:1.19236"
   cx="207.09181"
   cy="551.25879"
   r="2.5" />
                  <circle
   id="bulb-25"
   style="display:inline;fill:#ff0000;fill-opacity:1;stroke-width:1.19236"
   cx="-210.40323"
   cy="578.30304"
   transform="scale(-1,1)"
   r="2.5" />
                  <circle
   id="bulb-26"
   style="display:inline;fill:#ff0000;fill-opacity:1;stroke-width:1.19236"
   cx="214.83961"
   cy="602.69684"
   r="2.5" />
                  <circle
   id="bulb-27"
   style="display:inline;fill:#ff0000;fill-opacity:1;stroke-width:1.19236"
   cx="-217.18263"
   cy="630.99738"
   transform="scale(-1,1)"
   r="2.5" />
                  <circle
   id="bulb-36"
   style="display:inline;fill:#ff0000;fill-opacity:1;stroke-width:1.19236"
   cx="242.90906"
   cy="634.37244"
   r="2.5" />
                  <circle
   id="bulb-35"
   style="display:inline;fill:#ff0000;fill-opacity:1;stroke-width:1.19236"
   cx="255.367"
   cy="616.13837"
   r="2.5" />
                  <circle
   id="bulb-34"
   style="display:inline;fill:#ff0000;fill-opacity:1;stroke-width:1.19236"
   cx="270.23117"
   cy="597.9859"
   r="2.5" />
                  <circle
   id="bulb-33"
   style="display:inline;fill:#ff0000;fill-opacity:1;stroke-width:1.19236"
   cx="282.81345"
   cy="581.33044"
   r="2.5" />
                  <circle
   id="bulb-32"
   style="display:inline;fill:#ff0000;fill-opacity:1;stroke-width:1.19236"
   cx="263.68839"
   cy="580.24078"
   r="2.5" />
                  <circle
   id="bulb-31"
   style="display:inline;fill:#ff0000;fill-opacity:1;stroke-width:1.19236"
   cx="244.75681"
   cy="579.39276"
   r="2.5" />
                  <circle
   id="bulb-41"
   style="display:inline;fill:#ff0000;fill-opacity:1;stroke-width:1.19236"
   cx="297.95502"
   cy="555.15765"
   r="2.5" />
                  <circle
   id="bulb-42"
   style="display:inline;fill:#ff0000;fill-opacity:1;stroke-width:1.19236"
   cx="314.65155"
   cy="555.77301"
   r="2.5" />
                  <circle
   id="bulb-43"
   style="display:inline;fill:#ff0000;fill-opacity:1;stroke-width:1.19236"
   cx="332.8974"
   cy="556.99664"
   r="2.5" />
                  <circle
   id="bulb-44"
   style="display:inline;fill:#ff0000;fill-opacity:1;stroke-width:1.19236"
   cx="321.95486"
   cy="573.44336"
   r="2.5" />
                  <circle
   id="bulb-45"
   style="display:inline;fill:#ff0000;fill-opacity:1;stroke-width:1.19236"
   cx="307.87451"
   cy="590.17639"
   r="2.5" />
                  <circle
   id="bulb-51"
   style="display:inline;fill:#ff0000;fill-opacity:1;stroke-width:1.19236"
   cx="370.45358"
   cy="627.07483"
   r="2.5" />
                  <circle
   id="bulb-52"
   style="display:inline;fill:#ff0000;fill-opacity:1;stroke-width:1.19236"
   cx="364.75101"
   cy="603.87109"
   r="2.5" />
                  <circle
   id="bulb-53"
   style="display:inline;fill:#ff0000;fill-opacity:1;stroke-width:1.19236"
   cx="364.50562"
   cy="580.46808"
   r="2.5" />
                  <circle
   id="bulb-54"
   style="display:inline;fill:#ff0000;fill-opacity:1;stroke-width:1.19236"
   cx="372.46964"
   cy="561.4729"
   r="2.5" />
                  <circle
   id="bulb-55"
   style="display:inline;fill:#ff0000;fill-opacity:1;stroke-width:1.19236"
   cx="392.49234"
   cy="575.45038"
   r="2.5" />
                  <circle
   id="bulb-56"
   style="display:inline;fill:#ff0000;fill-opacity:1;stroke-width:1.19236"
   cx="410.23517"
   cy="559.3606"
   r="2.5" />
                  <circle
   id="bulb-57"
   style="display:inline;fill:#ff0000;fill-opacity:1;stroke-width:1.19236"
   cx="419.09967"
   cy="577.93341"
   r="2.5" />
                  <circle
   id="bulb-61"
   style="display:inline;fill:#ff0000;fill-opacity:1;stroke-width:1.19236"
   cx="438.56894"
   cy="629.17975"
   r="2.5" />
                  <circle
   id="bulb-62"
   style="display:inline;fill:#ff0000;fill-opacity:1;stroke-width:1.19236"
   cx="443.62729"
   cy="600.21191"
   r="2.5" />
                  <circle
   id="bulb-64"
   style="display:inline;fill:#ff0000;fill-opacity:1;stroke-width:1.19236"
   cx="464.09146"
   cy="575.62128"
   r="2.5" />
                  <circle
   id="bulb-65"
   style="display:inline;fill:#ff0000;fill-opacity:1;stroke-width:1.19236"
   cx="468.69681"
   cy="604.02924"
   r="2.5" />
                  <circle
   id="bulb-66"
   style="display:inline;fill:#ff0000;fill-opacity:1;stroke-width:1.19236"
   cx="474.28152"
   cy="623.6272"
   r="2.5" />
                  <circle
   id="bulb-76"
   style="display:inline;fill:#ff0000;fill-opacity:1;stroke-width:1.19236"
   cx="509.28351"
   cy="632.69641"
   r="2.5" />
                  <circle
   id="bulb-75"
   style="display:inline;fill:#ff0000;fill-opacity:1;stroke-width:1.19236"
   cx="505.13724"
   cy="603.85736"
   r="2.5" />
                  <circle
   id="bulb-73"
   style="display:inline;fill:#ff0000;fill-opacity:1;stroke-width:1.19236"
   cx="529.61011"
   cy="541.17242"
   r="2.5" />
                  <circle
   id="bulb-72"
   style="display:inline;fill:#ff0000;fill-opacity:1;stroke-width:1.19236"
   cx="501.37497"
   cy="545.83502"
   r="2.5" />
                  <circle
   id="bulb-71"
   style="display:inline;fill:#ff0000;fill-opacity:1;stroke-width:1.19236"
   cx="471.11221"
   cy="549.60455"
   r="2.5" />
                  <circle
   id="bulb-74"
   style="display:inline;fill:#ff0000;fill-opacity:1;stroke-width:1.19236"
   cx="502.94873"
   cy="574.28259"
   r="2.5" />
                  <circle
   id="bulb-81"
   style="display:inline;fill:#ff0000;fill-opacity:1;stroke-width:1.19236"
   cx="538.26556"
   cy="635.24377"
   r="2.5" />
                  <circle
   id="bulb-82"
   style="display:inline;fill:#ff0000;fill-opacity:1;stroke-width:1.19236"
   cx="539.927"
   cy="611.15869"
   r="2.5" />
                  <circle
   id="bulb-83"
   style="display:inline;fill:#ff0000;fill-opacity:1;stroke-width:1.19236"
   cx="542.25836"
   cy="585.12292"
   r="2.5" />
                  <circle
   id="bulb-84"
   style="display:inline;fill:#ff0000;fill-opacity:1;stroke-width:1.19236"
   cx="557.17365"
   cy="559.07208"
   r="2.5" />
                  <circle
   id="bulb-85"
   style="display:inline;fill:#ff0000;fill-opacity:1;stroke-width:1.19236"
   cx="569.66278"
   cy="587.02216"
   r="2.5" />
                  <circle
   id="bulb-86"
   style="display:inline;fill:#ff0000;fill-opacity:1;stroke-width:1.19236"
   cx="575.38306"
   cy="608.81586"
   r="2.5" />
                  <circle
   id="bulb-87"
   style="display:inline;fill:#ff0000;fill-opacity:1;stroke-width:1.19236"
   cx="579.68317"
   cy="629.84113"
   r="2.5" />
                  <circle
   id="bulb-96"
   style="display:inline;fill:#ff0000;fill-opacity:1;stroke-width:1.19236"
   cx="602.29889"
   cy="605.31543"
   r="2.5" />
                  <circle
   id="bulb-94"
   style="display:inline;fill:#ff0000;fill-opacity:1;stroke-width:1.19236"
   cx="624.5097"
   cy="567.91687"
   r="2.5" />
                  <circle
   id="bulb-93"
   style="display:inline;fill:#ff0000;fill-opacity:1;stroke-width:1.19236"
   cx="633.78491"
   cy="549.00507"
   r="2.5" />
                  <circle
   id="bulb-92"
   style="display:inline;fill:#ff0000;fill-opacity:1;stroke-width:1.19236"
   cx="616.901"
   cy="548.96191"
   r="2.5" />
                  <circle
   id="bulb-91"
   style="display:inline;fill:#ff0000;fill-opacity:1;stroke-width:1.19236"
   cx="-597.86041"
   cy="-550.15808"
   transform="scale(-1)"
   r="2.5" />
                  <circle
   id="bulb-95"
   style="display:inline;fill:#ff0000;fill-opacity:1;stroke-width:1.19236"
   cx="612.19159"
   cy="585.96173"
   r="2.5" />
                  <circle
   id="bulb-101"
   style="display:inline;fill:#ff0000;fill-opacity:1;stroke-width:1.19236"
   cx="659.2583"
   cy="576.90039"
   r="2.5" />
                  <circle
   id="bulb-102"
   style="display:inline;fill:#ff0000;fill-opacity:1;stroke-width:1.19236"
   cx="676.38055"
   cy="584.25134"
   r="2.5" />
                  <circle
   id="bulb-103"
   style="display:inline;fill:#ff0000;fill-opacity:1;stroke-width:1.19236"
   cx="691.81299"
   cy="-593.02887"
   transform="scale(1,-1)"
   r="2.5" />
                  <circle
   id="bulb-104"
   style="display:inline;fill:#ff0000;fill-opacity:1;stroke-width:1.19236"
   cx="677.09686"
   cy="603.21533"
   r="2.5" />
                  <circle
   id="bulb-105"
   style="display:inline;fill:#ff0000;fill-opacity:1;stroke-width:1.19236"
   cx="659.15094"
   cy="614.58856"
   r="2.5" />
                  <circle
   id="bulb-106"
   style="display:inline;fill:#ff0000;fill-opacity:1;stroke-width:1.19236"
   cx="641.24054"
   cy="628.37567"
   r="2.5" />
            <circle
   id="bulb-12"
   style="display:inline;fill:#ff0000;fill-opacity:1;stroke-width:1.19236"
   cx="157.60118"
   cy="619.99048"
   r="2.5" /><circle
   id="bulb-13"
   style="display:inline;fill:#ff0000;fill-opacity:1;stroke-width:1.19236"
   cx="181.91013"
   cy="642.27148"
   r="2.5" /><circle
   id="bulb-37"
   style="display:inline;fill:#ff0000;fill-opacity:1;stroke-width:1.19236"
   cx="262.78983"
   cy="635.57489"
   r="2.5" /><circle
   id="bulb-38"
   style="display:inline;fill:#ff0000;fill-opacity:1;stroke-width:1.19236"
   cx="282.29913"
   cy="633.9328"
   r="2.5" /><circle
   id="bulb-46"
   style="display:inline;fill:#ff0000;fill-opacity:1;stroke-width:1.19236"
   cx="295.35608"
   cy="610.8158"
   r="2.5" /><circle
   id="bulb-48"
   style="display:inline;fill:#ff0000;fill-opacity:1;stroke-width:1.19236"
   cx="335.4422"
   cy="609.01941"
   r="2.5" /><circle
   id="bulb-47"
   style="display:inline;fill:#ff0000;fill-opacity:1;stroke-width:1.19236"
   cx="315.79138"
   cy="610.82214"
   r="2.5" /><circle
   id="bulb-58"
   style="display:inline;fill:#ff0000;fill-opacity:1;stroke-width:1.19236"
   cx="419.6124"
   cy="600.63983"
   r="2.5" /><circle
   id="bulb-59"
   style="display:inline;fill:#ff0000;fill-opacity:1;stroke-width:1.19236"
   cx="417.0593"
   cy="623.59186"
   r="2.5" /><circle
   id="bulb-67"
   style="display:inline;fill:#ff0000;fill-opacity:1;stroke-width:1.19236"
   cx="482.62698"
   cy="644.42816"
   r="2.5" /><circle
   id="bulb-88"
   style="display:inline;fill:#ff0000;fill-opacity:1;stroke-width:1.19236"
   cx="583.40289"
   cy="651.6839"
   r="2.5" /><circle
   id="bulb-98"
   style="display:inline;fill:#ff0000;fill-opacity:1;stroke-width:1.19236"
   cx="643.63666"
   cy="599.03857"
   r="2.5" /><circle
   id="bulb-97"
   style="display:inline;fill:#ff0000;fill-opacity:1;stroke-width:1.19236"
   cx="624.64386"
   cy="603.47528"
   r="2.5" /><circle
   id="bulb-108"
   style="display:inline;fill:#ff0000;fill-opacity:1;stroke-width:1.19236"
   cx="679.92456"
   cy="640.31342"
   r="2.5" /><circle
   id="bulb-107"
   style="display:inline;fill:#ff0000;fill-opacity:1;stroke-width:1.19236"
   cx="660.93176"
   cy="635.5387"
   r="2.5" /><circle
   id="bulb-9"
   style="display:inline;fill:#ff0000;fill-opacity:1;stroke-width:1.19236"
   cx="144.41273"
   cy="551.18518"
   r="2.5" /><circle
   id="bulb-63"
   style="display:inline;fill:#ff0000;fill-opacity:1;stroke-width:1.19236"
   cx="447.6608"
   cy="577.92371"
   r="2.5" /></g>
      </g>
</svg>
